<svg width="17" height="17" viewBox="0 0 17 17" fill="none" xmlns="http://www.w3.org/2000/svg">
<g id="add_s__6">
<path id="Shape" fill-rule="evenodd" clip-rule="evenodd" d="M8.9 3.5C9.231 3.5 9.5 3.769 9.5 4.1V7.5H12.9C13.231 7.5 13.5 7.769 13.5 8.1V8.9C13.5 9.231 13.231 9.5 12.9 9.5H9.5V12.9C9.5 13.231 9.231 13.5 8.9 13.5H8.1C7.769 13.5 7.5 13.231 7.5 12.9V9.5H4.1C3.769 9.5 3.5 9.231 3.5 8.9V8.1C3.5 7.769 3.769 7.5 4.1 7.5H7.5V4.1C7.5 3.769 7.769 3.5 8.1 3.5H8.9V3.5Z" fill="#858585"/>
</g>
</svg>
