<svg width="16" height="17" viewBox="0 0 16 17" fill="none" xmlns="http://www.w3.org/2000/svg">
<g id="undo__348">
<path id="Shape" fill-rule="evenodd" clip-rule="evenodd" d="M9 15.5H6C5.448 15.5 5 15.052 5 14.5C5 13.948 5.448 13.5 6 13.5H9C11.208 13.5 13 11.708 13 9.5C13 7.292 11.208 5.5 9 5.5H7V7.701C7 8.142 6.665 8.5 6.252 8.5C6.096 8.5 5.951 8.449 5.831 8.362L1.371 5.19C1.346 5.175 1.322 5.158 1.299 5.139C1.117 4.993 1 4.762 1 4.501C1 4.243 1.115 4.013 1.293 3.867H1.294C1.32 3.845 1.347 3.826 1.376 3.808L5.815 0.651C5.938 0.556 6.089 0.5 6.252 0.5C6.665 0.5 7 0.858 7 1.299V3.5H9C12.312 3.5 15 6.189 15 9.5C15 12.811 12.312 15.5 9 15.5Z" fill="#141414"/>
</g>
</svg>
