<svg width="16" height="17" viewBox="0 0 16 17" fill="none" xmlns="http://www.w3.org/2000/svg">
<g id="compose__19">
<path id="Shape" fill-rule="evenodd" clip-rule="evenodd" d="M1.9751 11.1493L8.5661 4.55825L11.9421 7.93425L7.0391 12.8373L5.3511 14.5253C5.3501 14.5262 4.9731 14.8753 4.2431 15.0123C3.2041 15.2093 2.4491 15.3512 1.7211 15.4893C1.5141 15.5282 1.3061 15.4613 1.1611 15.3393C1.0391 15.1943 0.972102 14.9862 1.0111 14.7793C1.1491 14.0512 1.2911 13.2963 1.4881 12.2572C1.6251 11.5282 1.9731 11.1523 1.9751 11.1493ZM2.9851 12.0652C2.9891 12.0602 2.9941 12.0553 2.9981 12.0512C3.1491 11.9002 3.3941 11.9002 3.5451 12.0512L4.4491 12.9552C4.6001 13.1062 4.6001 13.3502 4.4491 13.5012L4.3901 13.5602C4.3901 13.5602 4.2281 13.7102 3.9141 13.7692C3.4681 13.8542 3.1441 13.9152 2.8311 13.9742C2.7421 13.9913 2.6521 13.9622 2.5901 13.9102C2.5381 13.8482 2.5091 13.7583 2.5261 13.6692C2.5851 13.3562 2.6461 13.0322 2.7311 12.5862C2.7901 12.2723 2.9401 12.1102 2.9401 12.1102L2.9851 12.0652ZM12.7461 1.79325C12.3561 1.40225 11.7221 1.40225 11.3321 1.79325L10.0001 3.12425L13.3761 6.50025L14.7071 5.16825C15.0981 4.77825 15.0981 4.14425 14.7071 3.75425L12.7461 1.79325Z" fill="#A6CD46"/>
</g>
</svg>
