<svg width="16" height="17" viewBox="0 0 16 17" fill="none" xmlns="http://www.w3.org/2000/svg">
<g id="calendar-month__172" clip-path="url(#clip0_2318_4976)">
<path id="Vector" fill-rule="evenodd" clip-rule="evenodd" d="M2.99804 2.49218V0.492188H4.99804V2.49218H10.998V0.492188H12.998V2.49218H14.998V16.4922H0.998047V2.49218H2.99804ZM5.99804 11.4922H3.99804V13.4922H5.99804V11.4922ZM8.99803 11.4922H6.99803V13.4922H8.99803V11.4922ZM5.99804 8.49217H3.99804V10.4922H5.99804V8.49217ZM8.99803 8.49217H6.99803V10.4922H8.99803V8.49217ZM11.998 8.49217H9.99803V10.4922H11.998V8.49217ZM8.99803 5.49218H6.99803V7.49217H8.99803V5.49218ZM11.998 5.49218H9.99803V7.49217H11.998V5.49218Z" fill="#333333"/>
</g>
<defs>
<clipPath id="clip0_2318_4976">
<rect width="16" height="16" fill="white" transform="translate(0 0.5)"/>
</clipPath>
</defs>
</svg>
