<svg width="48" height="48" viewBox="0 0 48 48" fill="none" xmlns="http://www.w3.org/2000/svg">
<g id="Logo">
<g id="Union">
<path fill-rule="evenodd" clip-rule="evenodd" d="M24.0005 35.7931C21.8122 37.5324 19.1842 38.614 16.4168 38.9143C13.6493 39.2147 10.8541 38.7216 8.35064 37.4915C5.84718 36.2614 3.73648 34.3439 2.25979 31.9581C0.783101 29.5723 0 26.8146 0 24C0 21.1854 0.783101 18.4277 2.25979 16.0419C3.73648 13.6561 5.84718 11.7386 8.35064 10.5085C10.8541 9.27835 13.6493 8.7853 16.4168 9.08567C19.1842 9.38602 21.8122 10.4676 24.0004 12.2068C26.1886 10.4676 28.8165 9.38602 31.5839 9.08567C34.3513 8.78531 37.1465 9.27836 39.6499 10.5085C42.1533 11.7386 44.2639 13.6561 45.7405 16.0419C47.2171 18.4277 48.0001 21.1854 48 23.9999C48.0001 26.8144 47.2171 29.5722 45.7405 31.958C44.2639 34.3438 42.1533 36.2613 39.6499 37.4914C37.1465 38.7215 34.3513 39.2146 31.5839 38.9142C28.8166 38.6139 26.1886 37.5323 24.0005 35.7931ZM18.335 24C18.3329 21.7285 18.842 19.4863 19.8235 17.4431C20.8051 15.4001 22.2334 13.6095 24.0004 12.2071C25.7659 13.6109 27.1931 15.4017 28.1744 17.4445C29.1559 19.4873 29.6658 21.7288 29.6658 23.9999C29.6658 26.2711 29.1559 28.5126 28.1744 30.5554C27.1931 32.5982 25.7658 34.389 24.0004 35.7928C22.2334 34.3904 20.8051 32.5999 19.8235 30.5569C18.842 28.5137 18.3329 26.2715 18.335 24ZM26.4272 35.6338C28.0496 36.5949 29.8609 37.2017 31.744 37.4061C34.2315 37.6761 36.744 37.2329 38.9943 36.1271C41.2445 35.0214 43.1417 33.2978 44.469 31.1533C45.7963 29.0088 46.5001 26.5299 46.5 24C46.5001 21.4701 45.7963 18.9911 44.469 16.8466C43.1417 14.7021 41.2445 12.9785 38.9943 11.8728C36.744 10.767 34.2315 10.3238 31.744 10.5938C29.8609 10.7982 28.0496 11.405 26.4272 12.3661C27.6893 13.6525 28.7367 15.1435 29.5237 16.7817C30.6043 19.0311 31.1658 21.4992 31.1658 23.9999C31.1658 26.5007 30.6043 28.9688 29.5237 31.2182C28.7367 32.8564 27.6893 34.3474 26.4272 35.6338Z" fill="#858585"/>
<path d="M46.5853 32.8114V33.2943H46.4801V32.8114H46.2875V32.7131H46.7779V32.8114H46.5853Z" fill="#858585"/>
<path d="M47.5374 32.7121V33.2943H47.4313V32.8542L47.2691 33.2338H47.1591L46.997 32.8551V33.2943H46.8908V32.7121H47.0412L47.2141 33.1126L47.387 32.7121H47.5374Z" fill="#858585"/>
</g>
</g>
</svg>
