<svg width="16" height="16" viewBox="0 0 16 16" fill="none" xmlns="http://www.w3.org/2000/svg">
<g id="close__1">
<path id="Shape" fill-rule="evenodd" clip-rule="evenodd" d="M8.19125 6.66325L12.5312 2.32325C12.9622 1.89225 13.6623 1.89225 14.0933 2.32325C14.5243 2.75425 14.5243 3.45425 14.0933 3.88525L9.75325 8.22525L14.0933 12.5653C14.5153 12.9862 14.5153 13.6713 14.0933 14.0933C13.6713 14.5153 12.9862 14.5153 12.5653 14.0933L8.22525 9.75325L3.88525 14.0933C3.45425 14.5243 2.75425 14.5243 2.32325 14.0933C1.89225 13.6623 1.89225 12.9622 2.32325 12.5312L6.66325 8.19125L2.32325 3.85125C1.90125 3.43025 1.90125 2.74525 2.32325 2.32325C2.74525 1.90125 3.43025 1.90125 3.85125 2.32325L8.19125 6.66325Z" fill="#858585"/>
</g>
</svg>
