<svg width="16" height="16" viewBox="0 0 16 16" fill="none" xmlns="http://www.w3.org/2000/svg">
<g id="dislike__52">
<path id="Shape" fill-rule="evenodd" clip-rule="evenodd" d="M8.875 2.00014C8.878 2.00014 10.391 1.97414 11.155 2.63514C11.98 3.34914 12 4.62514 12 4.62514V8.03714C12 8.03714 12.003 9.92214 11.246 10.7931C10.489 11.6651 8.815 12.6791 8.286 13.4071C7.757 14.1361 7.452 15.1291 6.614 15.1291C5.777 15.1291 5.375 14.6081 5.375 13.8181C5.375 13.4411 5.724 12.6741 5.724 11.6251C5.724 11.2171 5.384 11.0001 4.831 11.0001H3C1.737 11.0001 1 10.2291 1 9.00014C1 8.34714 1.359 7.77714 1.889 7.47614C1.88 7.40214 1.875 7.32714 1.875 7.25014C1.875 6.59714 2.234 6.02714 2.765 5.72614C2.755 5.65214 2.75 5.57714 2.75 5.50014C2.75 4.84714 3.109 4.27714 3.64 3.97614C3.63 3.90214 3.625 3.82714 3.625 3.75014C3.625 2.78414 4.409 2.00014 5.375 2.00014H6.25H8.875ZM13 9.43814C13 10.1621 13.276 10.7501 14 10.7501C14.724 10.7501 15 10.1621 15 9.43814V3.31314C15 2.58814 14.724 2.00014 14 2.00014C13.276 2.00014 13 2.58814 13 3.31314V9.43814Z" fill="#865480"/>
</g>
</svg>
