<svg width="17" height="16" viewBox="0 0 17 16" fill="none" xmlns="http://www.w3.org/2000/svg">
<g id="download_alt__405">
<path id="shape" fill-rule="evenodd" clip-rule="evenodd" d="M13.0941 7.50282L9.35707 11.5272C9.15731 11.7233 8.85768 11.9195 8.45816 11.9195C8.16817 11.9195 7.94254 11.7645 7.76423 11.642C7.69688 11.5957 7.63628 11.5541 7.58151 11.5272L3.78381 7.45081L3.68393 7.35272C3.58405 7.15654 3.48417 6.96036 3.48417 6.76419C3.48417 6.27375 3.88369 5.88139 4.38309 5.88139H6.48052L6.4675 2.00627C6.4675 1.51583 6.9669 1.02539 7.4663 1.02539L9.52793 1C10.0273 1 10.5267 1.49044 10.5267 1.98088V5.88139L12.5947 5.93341C13.0941 5.93341 13.4936 6.32577 13.4936 6.81621C13.4936 7.01238 13.2939 7.30665 13.0941 7.50282ZM3.5 13C2.94772 13 2.5 13.4477 2.5 14C2.5 14.5523 2.94772 15 3.5 15H13.5C14.0523 15 14.5 14.5523 14.5 14C14.5 13.4477 14.0523 13 13.5 13H3.5Z" fill="#A6CD46"/>
</g>
</svg>
