<svg width="24" height="25" viewBox="0 0 24 25" fill="none" xmlns="http://www.w3.org/2000/svg">
<path d="M20 3.75317H4C3.447 3.75317 3 4.19355 3 4.73615V20.4638C3 21.0064 3.447 21.4468 4 21.4468H12.615V14.6053H10.277V11.9266H12.615V9.96068C12.615 7.67526 14.035 6.42982 16.115 6.42982C16.814 6.42786 17.514 6.46325 18.21 6.535V8.91381H16.775C15.647 8.91381 15.427 9.44265 15.427 10.2163V11.9217H18.124L17.774 14.6003H15.426V21.4468H20C20.553 21.4468 21 21.0064 21 20.4638V4.73615C21 4.19355 20.553 3.75317 20 3.75317Z" fill="#A6CD46"/>
</svg>
