<svg width="24" height="24" viewBox="0 0 24 24" fill="none" xmlns="http://www.w3.org/2000/svg">
<path d="M20 3.05542H4C3.447 3.05542 3 3.49579 3 4.0384V19.7661C3 20.3087 3.447 20.749 4 20.749H12.615V13.9075H10.277V11.2289H12.615V9.26293C12.615 6.9775 14.035 5.73207 16.115 5.73207C16.814 5.7301 17.514 5.76549 18.21 5.83725V8.21606H16.775C15.647 8.21606 15.427 8.7449 15.427 9.5185V11.224H18.124L17.774 13.9026H15.426V20.749H20C20.553 20.749 21 20.3087 21 19.7661V4.0384C21 3.49579 20.553 3.05542 20 3.05542Z" fill="white"/>
</svg>
