<svg width="74" height="100" viewBox="0 0 74 100" fill="none" xmlns="http://www.w3.org/2000/svg">
<path fill-rule="evenodd" clip-rule="evenodd" d="M28.38 6.66999C25.5029 5.43926 22.4915 5.56476 19.8837 7.05494C17.5696 8.37733 16.0775 10.484 15.1201 12.3058C13.1948 15.9692 12.3132 20.6324 12.1036 24.1787C11.4972 34.4374 11.6042 46.7199 13.3853 58.3178C14.999 68.8259 18.064 79.3021 23.6712 87.1496C29.4805 95.2797 38.0356 100.539 49.6911 99.956C62.6117 99.31 71.5746 90.0044 73.2877 78.8989C75.0239 67.6434 69.3319 55.3793 55.3357 48.0685C47.8054 43.6107 44.9689 39.9914 43.2549 36.2901C42.3118 34.2535 41.6301 32.0192 40.8273 29.1462C40.7185 28.7568 40.6077 28.3565 40.494 27.9456L40.4937 27.9446C39.7907 25.4052 38.9765 22.4643 37.8421 19.2229C35.6977 13.0963 32.7258 8.52898 28.38 6.66999ZM24.5814 17.278C23.6087 19.1289 22.9307 22.1446 22.7732 24.8094C22.196 34.5742 22.3167 46.0614 23.9497 56.6954C25.4566 66.5079 28.1745 75.0674 32.3676 80.9357C36.3587 86.5213 41.6216 89.6579 49.1573 89.2811C56.7225 88.9028 61.7395 83.6539 62.7244 77.2694C63.6805 71.0712 60.8308 62.9525 50.2835 57.4883L50.1541 57.4212L50.0286 57.3473C41.0221 52.0399 36.4015 46.926 33.5561 40.7815C32.215 37.8855 31.3399 34.9088 30.5334 32.0226C30.4153 31.6001 30.2983 31.1778 30.1811 30.7547C29.4761 28.211 28.7619 25.634 27.7539 22.7538C26.5237 19.2391 25.3989 17.656 24.7502 16.9743C24.6972 17.0642 24.6407 17.1651 24.5814 17.278Z" fill="#865480"/>
<path d="M22.7732 24.8094C22.9307 22.1446 23.6087 19.1289 24.5814 17.278C24.6407 17.1651 24.6972 17.0642 24.7502 16.9743C25.3989 17.656 26.5237 19.2391 27.7539 22.7538C28.7619 25.634 29.4761 28.211 30.1811 30.7547C30.2983 31.1778 30.4153 31.6001 30.5334 32.0226C31.3399 34.9088 32.215 37.8855 33.5561 40.7815C36.4015 46.926 41.0221 52.0399 50.0286 57.3473L50.1541 57.4212L50.2835 57.4883C60.8308 62.9525 63.6805 71.0712 62.7244 77.2694C61.7395 83.6539 56.7225 88.9028 49.1573 89.2811C41.6216 89.6579 36.3587 86.5213 32.3676 80.9357C28.1745 75.0674 25.4566 66.5079 23.9497 56.6954C22.3167 46.0614 22.196 34.5742 22.7732 24.8094Z" fill="#865480"/>
<path fill-rule="evenodd" clip-rule="evenodd" d="M24.6832 4.78218C29.5601 5.60873 34.6229 8.71492 37.3516 15.7288C40.7262 24.4028 49.7677 29.4175 56.2349 30.6918C56.8978 30.8224 57.3888 31.3842 57.4297 32.0585C57.4705 32.7329 57.0508 33.3498 56.4086 33.5595C48.8118 36.0392 43.5978 37.0223 39.8478 36.8641C38.1109 36.7907 36.6808 36.4714 35.4773 35.9512C35.791 37.1109 36.0832 38.3942 36.1582 39.9412C36.3231 43.3416 35.4306 47.7581 32.0389 55.0284C31.7864 55.5695 31.2344 55.9067 30.6378 55.8842C30.0411 55.8618 29.516 55.4841 29.305 54.9256C28.0645 51.6432 26.9329 49.8307 25.9243 48.5658C25.4109 47.9219 24.9139 47.3999 24.395 46.8593L24.3365 46.7983C23.8432 46.2845 23.3155 45.7348 22.8058 45.0907C21.1613 43.0123 19.8477 40.1346 18.7592 33.6287C18.7131 33.8885 18.6688 34.1438 18.626 34.395C18.5468 34.86 18.4718 35.3173 18.3983 35.7657C18.1018 37.5736 17.8289 39.2374 17.3989 40.6858C16.8397 42.5694 15.9837 44.2246 14.3872 45.6598C12.8268 47.0625 10.6578 48.1654 7.63526 49.1537C7.1397 49.3157 6.59547 49.2059 6.20152 48.8644C5.80757 48.5229 5.62167 47.9997 5.71177 47.4862C7.64632 36.4602 7.44878 29.6013 7.30242 24.5196C7.275 23.5675 7.24938 22.6778 7.23991 21.8348C7.20974 19.1483 7.33919 16.8028 8.19695 14.4659C9.05903 12.1173 10.6041 9.91273 13.173 7.36998C14.261 6.293 16.0038 5.46913 17.9505 5.00001C19.9327 4.52232 22.2771 4.3744 24.6832 4.78218ZM18.646 7.88634C16.9948 8.28426 15.8251 8.92224 15.2616 9.48004C12.8758 11.8416 11.6447 13.6893 10.9841 15.489C10.3192 17.3004 10.1795 19.1993 10.2087 21.8015C10.2178 22.6155 10.2431 23.4852 10.2703 24.4241C10.4068 29.131 10.5938 35.5764 9.05676 45.4589C10.568 44.8106 11.6285 44.1475 12.4023 43.4519C13.4903 42.4739 14.1055 41.3473 14.5527 39.8408C14.9243 38.5893 15.1582 37.167 15.451 35.3868C15.5284 34.9162 15.61 34.4206 15.6992 33.8965C16.1175 31.4405 16.6857 28.5191 17.7852 25.0367C17.9972 24.3653 18.6517 23.9352 19.3521 24.007C20.0526 24.0787 20.6062 24.6327 20.6776 25.3331C21.9447 37.761 23.5105 41.1965 25.1341 43.2484C25.5542 43.7794 25.9951 44.2387 26.5129 44.7783L26.5371 44.8035C27.0565 45.3447 27.6387 45.9536 28.2456 46.7148C29.0485 47.7216 29.869 48.9617 30.7115 50.6781C32.839 45.5093 33.3036 42.3723 33.1927 40.085C33.1267 38.7237 32.8547 37.5983 32.5265 36.4174C32.4789 36.2463 32.4296 36.0723 32.3794 35.895C32.089 34.8707 31.7685 33.7399 31.5887 32.4634C31.4956 31.8026 31.855 31.1608 32.4671 30.8949C33.0791 30.6289 33.7935 30.8041 34.213 31.323C35.3652 32.748 36.9041 33.7682 39.973 33.8977C42.453 34.0024 45.8926 33.52 50.8129 32.1559C44.5418 29.6753 37.6239 24.6172 34.5847 16.8053C32.2567 10.8214 28.0956 8.37181 24.1871 7.7094C22.2004 7.37269 20.2617 7.49699 18.646 7.88634Z" fill="#A6CD46"/>
<path d="M15.2616 9.48004C15.8251 8.92224 16.9948 8.28426 18.646 7.88634C20.2617 7.49699 22.2004 7.37269 24.1871 7.7094C28.0956 8.37181 32.2567 10.8214 34.5847 16.8053C37.6239 24.6172 44.5418 29.6753 50.8129 32.1559C45.8926 33.52 42.453 34.0024 39.973 33.8977C36.9041 33.7682 35.3652 32.748 34.213 31.323C33.7935 30.8041 33.0791 30.6289 32.4671 30.8949C31.855 31.1608 31.4956 31.8026 31.5887 32.4634C31.7685 33.7399 32.089 34.8707 32.3794 35.895C32.4296 36.0723 32.4789 36.2463 32.5265 36.4174C32.8547 37.5983 33.1267 38.7237 33.1927 40.085C33.3036 42.3723 32.839 45.5093 30.7115 50.6781C29.869 48.9617 29.0485 47.7216 28.2456 46.7148C27.6387 45.9536 27.0565 45.3447 26.5371 44.8035L26.5129 44.7783C25.9951 44.2387 25.5542 43.7794 25.1341 43.2484C23.5105 41.1965 21.9447 37.761 20.6776 25.3331C20.6062 24.6327 20.0526 24.0787 19.3521 24.007C18.6517 23.9352 17.9972 24.3653 17.7852 25.0367C16.6857 28.5191 16.1175 31.4405 15.6992 33.8965C15.61 34.4206 15.5284 34.9162 15.451 35.3868C15.1582 37.167 14.9243 38.5893 14.5527 39.8408C14.1055 41.3473 13.4903 42.4739 12.4023 43.4519C11.6285 44.1475 10.568 44.8106 9.05676 45.4589C10.5938 35.5764 10.4068 29.131 10.2703 24.4241C10.2431 23.4852 10.2178 22.6155 10.2087 21.8015C10.1795 19.1993 10.3192 17.3004 10.9841 15.489C11.6447 13.6893 12.8758 11.8416 15.2616 9.48004Z" fill="#A6CD46"/>
</svg>
