<svg width="16" height="13" viewBox="0 0 16 13" fill="none" xmlns="http://www.w3.org/2000/svg">
<g id="Group">
<g id="Layer 1">
<path id="Vector" fill-rule="evenodd" clip-rule="evenodd" d="M11.121 2.5C11.621 2.5 12.051 2.88 12.111 3.38C12.111 3.38 12.171 3.9 12.231 4.37C12.291 4.83 12.611 5.21 13.041 5.35C13.101 5.37 14.141 5.38 14.141 5.38C14.631 5.45 15.001 5.87 15.001 6.37V8.5C15.551 8.5 16.001 8.95 16.001 9.5C16.001 10.05 15.551 10.5 15.001 10.5H14.001C14.001 11.6 13.101 12.5 12.001 12.5C10.901 12.5 10.001 11.6 10.001 10.5H6.001C6.001 11.6 5.101 12.5 4.001 12.5C2.901 12.5 2.001 11.6 2.001 10.5H1.001C0.451 10.5 0.001 10.05 0.001 9.5C0.001 8.95 0.451 8.5 1.001 8.5H7.003C7.532 8.5 8.04 8.289 8.415 7.915C8.79 7.54 9.001 7.031 9.001 6.5V3.5C9.001 2.95 9.451 2.5 10.001 2.5H11.121ZM12.001 11.5C11.451 11.5 11.001 11.05 11.001 10.5C11.001 9.95 11.451 9.5 12.001 9.5C12.551 9.5 13.001 9.95 13.001 10.5C13.001 11.05 12.551 11.5 12.001 11.5ZM4.001 11.5C3.451 11.5 3.001 11.05 3.001 10.5C3.001 9.95 3.451 9.5 4.001 9.5C4.551 9.5 5.001 9.95 5.001 10.5C5.001 11.05 4.551 11.5 4.001 11.5ZM6.691 0.5C7.039 0.5 7.372 0.638 7.617 0.883C7.862 1.129 8 1.462 8 1.809V6.19C8 6.538 7.862 6.871 7.617 7.117C7.372 7.362 7.039 7.5 6.691 7.5H1.31C0.962 7.5 0.629 7.362 0.384 7.117C0.138 6.871 0 6.538 0 6.19V1.809C0 1.462 0.138 1.129 0.384 0.883C0.629 0.638 0.962 0.5 1.31 0.5H6.691ZM11.041 5.5C11.131 5.5 11.231 5.46 11.291 5.39C11.361 5.311 11.391 5.22 11.381 5.12C11.341 4.74 11.281 4.16 11.251 3.811C11.231 3.63 11.081 3.5 10.901 3.5H10.351C10.151 3.5 10.001 3.66 10.001 3.85V5.15C10.001 5.25 10.041 5.33 10.101 5.4C10.171 5.46 10.251 5.5 10.351 5.5H11.041Z" fill="#333333"/>
</g>
</g>
</svg>
