<svg width="16" height="17" viewBox="0 0 16 17" fill="none" xmlns="http://www.w3.org/2000/svg">
<g id="jar__158">
<path id="Shape" fill-rule="evenodd" clip-rule="evenodd" d="M13.068 7.73795C13.135 7.67295 13.226 7.63795 13.319 7.64195C13.413 7.64695 13.5 7.68995 13.561 7.76095C13.842 8.09995 14 8.46595 14 8.84995V13.625C14 15.211 11.311 16.498 8 16.498C4.689 16.498 2 15.211 2 13.625V8.84995C2 8.46595 2.158 8.09995 2.443 7.76495C2.503 7.69495 2.589 7.65195 2.681 7.64795C2.773 7.64395 2.863 7.67795 2.929 7.74195C3.197 7.98595 3.512 8.21295 3.869 8.41495C3.952 8.46195 4.01 8.54295 4.027 8.63695C4.044 8.73095 4.019 8.82795 3.957 8.90095C3.739 9.14195 3.622 9.41195 3.622 9.69495V12.78C3.622 13.937 5.584 14.876 8 14.876C10.416 14.876 12.378 13.937 12.378 12.78V9.69495C12.378 9.41195 12.261 9.14195 12.048 8.89595C11.989 8.82495 11.964 8.72995 11.981 8.63895C11.997 8.54695 12.054 8.46795 12.135 8.42195C12.488 8.21295 12.803 7.98595 13.068 7.73795ZM5 11C5.002 10.173 6.345 9.50195 8 9.50195C9.655 9.50195 10.998 10.173 11 11V12V12.002C11 12.829 9.656 13.502 8 13.502C6.344 13.502 5 12.829 5 12.002V12V11.002V11.001V11ZM3 2.93295C3 1.59095 5.24 0.501953 8 0.501953C10.76 0.501953 13 1.59095 13 2.93295C13 2.95595 12.999 2.97895 12.998 3.00195V5.45495C12.999 5.47795 13 5.49995 13 5.52295C13 6.86495 10.76 7.95495 8 7.95495C5.24 7.95495 3 6.86495 3 5.52295V2.93295ZM11.613 4.72295C11.693 4.67795 11.791 4.67895 11.87 4.72595C11.95 4.77295 11.998 4.85795 11.998 4.94995C12 4.99295 12 5.02095 12 5.02095C12 5.90595 10.208 6.62595 8 6.62595C5.792 6.62595 4 5.90595 4 5.02095C4 5.02095 4 4.99295 4 4.94995C4 4.85695 4.049 4.77195 4.129 4.72495C4.208 4.67895 4.307 4.67695 4.388 4.72195C5.298 5.18395 6.58 5.47095 8 5.47095C9.42 5.47095 10.702 5.18395 11.613 4.72295Z" fill="#A6CD46"/>
</g>
</svg>
