<svg width="16" height="12" viewBox="0 0 16 12" fill="none" xmlns="http://www.w3.org/2000/svg">
<g id="Group">
<g id="Layer 1">
<path id="Vector" fill-rule="evenodd" clip-rule="evenodd" d="M11.121 2C11.621 2 12.051 2.38 12.111 2.88C12.111 2.88 12.171 3.4 12.231 3.87C12.291 4.33 12.611 4.71 13.041 4.85C13.101 4.87 14.141 4.88 14.141 4.88C14.631 4.95 15.001 5.37 15.001 5.87V8C15.551 8 16.001 8.45 16.001 9C16.001 9.55 15.551 10 15.001 10H14.001C14.001 11.1 13.101 12 12.001 12C10.901 12 10.001 11.1 10.001 10H6.001C6.001 11.1 5.101 12 4.001 12C2.901 12 2.001 11.1 2.001 10H1.001C0.451 10 0.001 9.55 0.001 9C0.001 8.45 0.451 8 1.001 8H7.003C7.532 8 8.04 7.789 8.415 7.415C8.79 7.04 9.001 6.531 9.001 6V3C9.001 2.45 9.451 2 10.001 2H11.121ZM12.001 11C11.451 11 11.001 10.55 11.001 10C11.001 9.45 11.451 9 12.001 9C12.551 9 13.001 9.45 13.001 10C13.001 10.55 12.551 11 12.001 11ZM4.001 11C3.451 11 3.001 10.55 3.001 10C3.001 9.45 3.451 9 4.001 9C4.551 9 5.001 9.45 5.001 10C5.001 10.55 4.551 11 4.001 11ZM6.691 0C7.039 0 7.372 0.138 7.617 0.383C7.862 0.629 8 0.962 8 1.309V5.69C8 6.038 7.862 6.371 7.617 6.617C7.372 6.862 7.039 7 6.691 7H1.31C0.962 7 0.629 6.862 0.384 6.617C0.138 6.371 0 6.038 0 5.69V1.309C0 0.962 0.138 0.629 0.384 0.383C0.629 0.138 0.962 0 1.31 0H6.691ZM11.041 5C11.131 5 11.231 4.96 11.291 4.89C11.361 4.811 11.391 4.72 11.381 4.62C11.341 4.24 11.281 3.66 11.251 3.311C11.231 3.13 11.081 3 10.901 3H10.351C10.151 3 10.001 3.16 10.001 3.35V4.65C10.001 4.75 10.041 4.83 10.101 4.9C10.171 4.96 10.251 5 10.351 5H11.041Z" fill="white"/>
</g>
</g>
</svg>
