<svg width="35" height="32" viewBox="0 0 35 32" fill="none" xmlns="http://www.w3.org/2000/svg">
<path fill-rule="evenodd" clip-rule="evenodd" d="M7.5 0C3.35786 0 0 3.35786 0 7.5V15H15V7.5C15 3.35786 11.6421 0 7.5 0ZM15 16H0V24.5C0 28.6421 3.35786 32 7.5 32C11.6421 32 15 28.6421 15 24.5V16Z" fill="#A6CD46"/>
<path fill-rule="evenodd" clip-rule="evenodd" d="M29.4291 11.419C30.4112 10.214 31 8.67575 31 7C31 3.13401 27.866 0 24 0C22.3218 0 20.7816 0.590548 19.5757 1.57517L29.4291 11.419ZM28.7436 12.1477C27.4963 13.2976 25.8302 14 24 14C20.134 14 17 10.866 17 7C17 5.17224 17.7005 3.50809 18.8477 2.26139L28.7436 12.1477Z" fill="#A6CD46"/>
<path fill-rule="evenodd" clip-rule="evenodd" d="M22.5709 27.419C21.5888 26.214 21 24.6758 21 23C21 19.134 24.134 16 28 16C29.6782 16 31.2184 16.5905 32.4243 17.5752L22.5709 27.419ZM23.2564 28.1477C24.5037 29.2976 26.1698 30 28 30C31.866 30 35 26.866 35 23C35 21.1722 34.2995 19.5081 33.1523 18.2614L23.2564 28.1477Z" fill="#A6CD46"/>
</svg>
