<svg width="35" height="35" viewBox="0 0 35 35" fill="none" xmlns="http://www.w3.org/2000/svg">
<path d="M27 0H0V32H27V0Z" fill="#A6CD46"/>
<path d="M18.5455 12.9081H20.5909L20.1818 11.3514H19.0455L20.0455 8.14054L22.1818 15H24L20.8182 6H19.1818L16 15H17.9091L18.5455 12.9081Z" fill="white"/>
<path d="M4.94306 11.2054H7.53381V9.6H4.94306V7.55676H12.7153C13.1139 7.55676 13.4626 7.60541 13.7117 7.75135C14.0107 7.8973 14.2598 8.09189 14.4591 8.33513C14.6584 8.57838 14.8078 8.87027 14.9075 9.25946C15.0071 9.6 15.0569 9.98919 15.0569 10.427C15.0569 10.8649 15.0071 11.2541 14.9075 11.6432C14.8078 11.9838 14.6584 12.3243 14.4093 12.5676C14.21 12.8108 13.911 13.0054 13.5623 13.1514C13.2135 13.2973 12.7651 13.3459 12.2669 13.3459H11.0214V9.64865H9.07829V14.9514H12.2171C12.9644 14.9514 13.6121 14.8541 14.21 14.6595C14.8078 14.4649 15.3061 14.173 15.7046 13.7838C16.1032 13.3946 16.452 12.9081 16.6512 12.373C16.8505 11.7892 17 11.1568 17 10.427C17 8.96757 16.6014 7.84865 15.8043 7.11892C15.1068 6.43784 14.1103 6.04865 12.8648 6H9.07829H3V15H4.94306V11.2054Z" fill="white"/>
</svg>
