<svg width="35" height="35" viewBox="0 0 35 35" fill="none" xmlns="http://www.w3.org/2000/svg">
<path fill-rule="evenodd" clip-rule="evenodd" d="M14.1414 28.9476C21.9515 28.9476 28.2828 22.6913 28.2828 14.9738C28.2828 7.25628 21.9515 1 14.1414 1C6.33132 1 0 7.25628 0 14.9738C0 17.9054 0.913582 20.6261 2.47475 22.8732L0.508414 27.6997C0.28364 28.2514 0.751004 28.8355 1.34613 28.7466L8.30808 27.7071C10.0866 28.5039 12.0616 28.9476 14.1414 28.9476ZM12.1616 8.75546C11.9273 8.75546 11.7374 8.94315 11.7374 9.17467V12.5284H8.41414C8.17984 12.5284 7.9899 12.7161 7.9899 12.9476V17C7.9899 17.2315 8.17984 17.4192 8.41414 17.4192H11.7374V20.6332C11.7374 20.8647 11.9273 21.0524 12.1616 21.0524H16.2626C16.4969 21.0524 16.6869 20.8647 16.6869 20.6332V17.4192H20.0101C20.2444 17.4192 20.4343 17.2315 20.4343 17V12.9476C20.4343 12.7161 20.2444 12.5284 20.0101 12.5284H16.6869V9.17467C16.6869 8.94315 16.4969 8.75546 16.2626 8.75546H12.1616Z" fill="#A6CD46"/>
<path d="M13.8939 30.2751C22.6217 30.2751 29.697 23.2837 29.697 14.6594C29.697 11.7417 28.8872 9.01083 27.4775 6.6744C31.9523 9.02064 35 13.6717 35 19.0262C35 21.9578 34.0864 24.6785 32.5253 26.9256L34.4916 31.7521C34.7164 32.3038 34.249 32.8879 33.6539 32.799L26.6919 31.7595C24.9134 32.5563 22.9384 33 20.8586 33C17.6733 33 14.7341 31.9594 12.3699 30.2034C12.8715 30.2509 13.3798 30.2751 13.8939 30.2751Z" fill="#A6CD46"/>
</svg>
