<svg width="45" height="35" viewBox="0 0 45 35" fill="none" xmlns="http://www.w3.org/2000/svg">
<path d="M30.3153 30.7977C30.1343 30.7977 29.9633 30.7977 29.8025 30.7977C26.052 30.7977 22.2915 30.8077 18.5411 30.7877C18.169 30.7877 17.9981 30.8977 17.8372 31.2277C16.7815 33.3578 14.3281 34.4679 12.2166 33.7878C10.7486 33.3178 9.86378 32.2678 9.41131 30.7877C7.88298 30.7877 6.35465 30.7977 4.83637 30.7877C4.12248 30.7877 3.5393 30.3477 3.3181 29.6877C3.10695 29.0676 3.26782 28.3676 3.81078 27.9876C4.10237 27.7776 4.50456 27.6576 4.86654 27.6076C5.37933 27.5476 5.90218 27.5976 6.42503 27.5876C7.36013 27.5676 8.06397 26.8676 8.06397 25.9775C8.05391 25.0975 7.34002 24.3975 6.40492 24.3875C5.42961 24.3775 4.46434 24.3875 3.48903 24.3875C2.37295 24.3875 1.63894 23.7574 1.62889 22.7974C1.60878 21.8274 2.33273 21.1973 3.48903 21.1973C7.64166 21.1973 11.8044 21.1973 15.957 21.1973C16.6307 21.1973 17.1636 20.9473 17.4954 20.3473C17.8071 19.7873 17.7669 19.2172 17.4049 18.6972C17.063 18.2072 16.5804 17.9872 15.9872 17.9972C13.8756 17.9972 11.7641 18.0072 9.65263 17.9972C8.81808 17.9972 8.1243 17.3572 8.05391 16.5671C7.97347 15.7671 8.48627 15.0471 9.2806 14.8471C9.47164 14.7971 9.68279 14.8071 9.87383 14.8071C13.5137 14.8071 17.1435 14.8071 20.7833 14.8071C22.0401 14.8071 22.8646 13.687 22.4021 12.617C22.1105 11.937 21.5676 11.6069 20.8135 11.6069C18.4506 11.6069 16.0877 11.6069 13.7248 11.6069C10.7788 11.6069 7.82265 11.6069 4.87659 11.6069C4.02193 11.6069 3.32815 11.0169 3.2276 10.2269C3.117 9.41686 3.63985 8.65683 4.45429 8.45683C4.66544 8.40682 4.88665 8.40682 5.0978 8.40682C8.73764 8.40682 12.3674 8.40682 16.0073 8.40682C16.691 8.40682 17.2038 8.11681 17.5155 7.51679C17.8071 6.96676 17.7568 6.41674 17.4049 5.90672C17.053 5.3967 16.5502 5.1967 15.9369 5.1967C13.3226 5.2067 10.7084 5.2067 8.09413 5.1967C7.36013 5.1967 6.77695 4.79668 6.53564 4.14665C6.29432 3.51663 6.4552 2.7866 7.00821 2.39658C7.2998 2.18658 7.70199 2.01657 8.05391 2.01657C15.4241 1.99657 22.8043 1.99657 30.1745 2.00657C31.1297 2.00657 31.8436 2.7166 31.7732 3.67664C31.6626 5.11669 31.4716 6.55675 31.3207 7.99681C31.3107 8.11681 31.3006 8.22682 31.2805 8.40682C31.4816 8.40682 31.6626 8.40682 31.8335 8.40682C34.4478 8.40682 37.062 8.41682 39.6763 8.39682C40.5108 8.39682 41.0739 8.74684 41.4158 9.49687C42.562 12.087 43.7183 14.6671 44.8445 17.2572C44.9852 17.5872 45.0254 18.0072 44.9852 18.3672C44.7238 20.9473 44.4322 23.5274 44.1406 26.1175C44.02 27.2276 43.9094 28.3376 43.7485 29.4377C43.6278 30.2677 42.9944 30.7877 42.1498 30.7977C41.2448 30.8077 40.3399 30.8177 39.435 30.7977C39.0931 30.7877 38.9222 30.8877 38.7613 31.2077C37.8664 32.9478 36.4085 33.9178 34.4377 33.9978C32.5374 34.0578 31.0291 32.8678 30.3153 30.7977ZM41.6872 19.5973C41.7074 19.0672 41.8883 18.4972 41.7174 18.0772C40.8426 15.9971 39.8874 13.947 38.9322 11.897C38.8719 11.767 38.6809 11.6169 38.5501 11.6169C37.3838 11.5969 36.2074 11.5869 35.031 11.6169C34.1662 11.647 33.573 12.217 33.4725 13.087C33.2814 14.6671 33.1004 16.2571 32.9396 17.8472C32.839 18.7972 33.5429 19.5673 34.5081 19.5973C35.2119 19.6173 35.9158 19.5973 36.6196 19.6073C38.2887 19.5973 39.9377 19.5973 41.6872 19.5973ZM12.468 29.5877C12.468 30.3277 12.9607 30.8577 13.5639 30.7877C14.6398 30.6577 15.4744 29.4177 15.1727 28.3876C14.9917 27.7376 14.4588 27.4676 13.8153 27.6976C12.9908 27.9776 12.468 28.7176 12.468 29.5877ZM33.382 29.5777C33.382 30.3377 33.9048 30.8777 34.5182 30.7777C35.5538 30.6077 36.3079 29.5177 36.1068 28.4876C35.956 27.7576 35.3929 27.4476 34.6891 27.7076C33.8948 27.9976 33.382 28.7376 33.382 29.5777Z" fill="#A6CD46"/>
<path d="M2.39304 17.9872C2.11151 17.9872 1.81992 17.9972 1.53839 17.9872C0.683727 17.9472 0 17.2472 0 16.3971C0 15.5371 0.663617 14.8271 1.52833 14.7971C2.11151 14.7771 2.69469 14.7771 3.28792 14.7971C4.15264 14.8271 4.82631 15.5371 4.82631 16.3871C4.82631 17.2372 4.15264 17.9472 3.29798 17.9872C2.99633 18.0072 2.69469 17.9872 2.39304 17.9872Z" fill="#A6CD46"/>
</svg>
