<svg width="28" height="32" viewBox="0 0 28 32" fill="none" xmlns="http://www.w3.org/2000/svg">
<path d="M8.3595 17.5941C8.57607 18.5179 9.15812 19.1569 9.74016 19.789C10.9787 21.1435 12.3796 22.3104 13.8009 23.4565C13.9295 23.5607 14.0242 23.6023 14.1799 23.4773C15.8042 22.1645 17.4082 20.8379 18.7618 19.2194C19.1543 18.7541 19.5063 18.2609 19.6349 17.6149C20.7177 17.7122 21.7532 17.9761 22.7075 18.4762C26.2403 20.3377 28 23.3245 28 27.4018C28 27.9019 27.9053 28.4159 27.7767 28.9021C27.3774 30.4372 26.308 31.2568 24.8665 31.6319C23.6347 31.9514 22.3691 32 21.1103 32C16.0208 32 10.9381 32 5.8486 31.9722C4.74543 31.9653 3.64903 31.8333 2.59323 31.4513C1.04338 30.8886 0.251534 29.7217 0.062032 28.0894C-0.486169 23.2967 2.65415 18.7957 7.30371 17.7747C7.6421 17.7052 7.98727 17.6566 8.3595 17.5941ZM19.9529 27.3323C19.9529 27.8394 19.9665 28.2978 19.9462 28.7562C19.9394 29.0619 20.068 29.173 20.3523 29.166C20.738 29.1522 21.117 29.1522 21.5028 29.166C21.8006 29.173 21.9359 29.0549 21.9292 28.7354C21.9156 28.277 21.9224 27.8185 21.9224 27.3323C22.4029 27.3323 22.8361 27.3184 23.276 27.3393C23.5738 27.3462 23.7159 27.242 23.7024 26.9156C23.6888 26.5196 23.6888 26.1307 23.7024 25.7347C23.7159 25.4152 23.5873 25.2972 23.2828 25.311C22.8361 25.3249 22.3894 25.318 21.9224 25.318C21.9224 24.8109 21.9156 24.3456 21.9224 23.8871C21.9292 23.6093 21.8209 23.4843 21.5434 23.4912C21.1509 23.4982 20.7516 23.5051 20.359 23.4912C20.0477 23.4773 19.9326 23.6093 19.9462 23.9219C19.9597 24.3803 19.9529 24.8387 19.9529 25.3249C19.4589 25.3249 19.0054 25.3388 18.5588 25.318C18.261 25.311 18.1527 25.443 18.1594 25.7347C18.1662 26.1376 18.1662 26.5474 18.1594 26.9503C18.1527 27.2281 18.2677 27.3532 18.5452 27.3462C18.9919 27.3254 19.4454 27.3323 19.9529 27.3323Z" fill="#A6CD46"/>
<path d="M14.0175 0C17.8481 0.00694595 21.0764 2.86173 21.6382 6.75841C21.9021 8.57825 21.5299 10.3286 20.914 12.0234C20.1424 14.142 19.0393 16.0521 17.3135 17.5107C16.3795 18.3026 15.3237 18.8235 14.0852 18.8444C12.7451 18.8652 11.6149 18.3026 10.62 17.4274C8.7182 15.7604 7.56765 13.6002 6.83672 11.183C6.28852 9.37703 6.08548 7.55025 6.61338 5.68873C7.57442 2.30606 10.5726 0 14.0175 0Z" fill="#A6CD46"/>
</svg>
