<svg width="24" height="25" viewBox="0 0 24 25" fill="none" xmlns="http://www.w3.org/2000/svg">
<path d="M20.9469 8.96788C20.9359 8.22376 20.7959 7.48554 20.5279 6.7896C20.0589 5.60117 19.1039 4.66145 17.8949 4.20141C17.1959 3.94289 16.4569 3.80429 15.7089 3.78856C14.7469 3.74629 14.4419 3.7345 11.9999 3.7345C9.55795 3.7345 9.24495 3.7345 8.28995 3.78856C7.54295 3.80429 6.80395 3.94289 6.10495 4.20141C4.89595 4.66145 3.93995 5.60117 3.47195 6.7896C3.20895 7.4767 3.06695 8.20312 3.05295 8.9374C3.00995 9.88401 2.99695 10.1838 2.99695 12.5843C2.99695 14.9847 2.99695 15.2914 3.05295 16.2311C3.06795 16.9664 3.20895 17.6918 3.47195 18.3809C3.94095 19.5683 4.89595 20.508 6.10595 20.9681C6.80195 21.2355 7.54095 21.3868 8.29095 21.4104C9.25395 21.4527 9.55895 21.4655 12.0009 21.4655C14.4429 21.4655 14.7559 21.4655 15.7109 21.4104C16.4579 21.3957 17.1969 21.2571 17.8969 20.9986C19.1059 20.5375 20.0609 19.5978 20.5299 18.4104C20.7929 17.7223 20.9339 16.9968 20.9489 16.2606C20.9919 15.315 21.0049 15.0152 21.0049 12.6137C21.0029 10.2133 21.0029 9.90859 20.9469 8.96788ZM11.9939 17.1236C9.43995 17.1236 7.37095 15.0899 7.37095 12.5793C7.37095 10.0688 9.43995 8.03503 11.9939 8.03503C14.5459 8.03503 16.6169 10.0688 16.6169 12.5793C16.6169 15.0899 14.5459 17.1236 11.9939 17.1236ZM16.8009 8.92659C16.2039 8.92659 15.7229 8.4528 15.7229 7.86694C15.7229 7.28108 16.2039 6.80729 16.8009 6.80729C17.3959 6.80729 17.8779 7.28108 17.8779 7.86694C17.8779 8.4528 17.3959 8.92659 16.8009 8.92659Z" fill="#A6CD46"/>
<path d="M11.994 15.5312C13.6525 15.5312 14.997 14.2096 14.997 12.5793C14.997 10.949 13.6525 9.62744 11.994 9.62744C10.3355 9.62744 8.99097 10.949 8.99097 12.5793C8.99097 14.2096 10.3355 15.5312 11.994 15.5312Z" fill="#A6CD46"/>
</svg>
