<svg width="24" height="24" viewBox="0 0 24 24" fill="none" xmlns="http://www.w3.org/2000/svg">
<path d="M20.9469 8.27012C20.9359 7.52601 20.7959 6.78779 20.5279 6.09184C20.0589 4.90342 19.1039 3.96369 17.8949 3.50366C17.1959 3.24513 16.4569 3.10653 15.7089 3.09081C14.7469 3.04854 14.4419 3.03674 11.9999 3.03674C9.55795 3.03674 9.24495 3.03674 8.28995 3.09081C7.54295 3.10653 6.80395 3.24513 6.10495 3.50366C4.89595 3.96369 3.93995 4.90342 3.47195 6.09184C3.20895 6.77894 3.06695 7.50536 3.05295 8.23965C3.00995 9.18626 2.99695 9.48607 2.99695 11.8865C2.99695 14.2869 2.99695 14.5936 3.05295 15.5334C3.06795 16.2686 3.20895 16.9941 3.47195 17.6831C3.94095 18.8706 4.89595 19.8103 6.10595 20.2703C6.80195 20.5377 7.54095 20.6891 8.29095 20.7127C9.25395 20.7549 9.55895 20.7677 12.0009 20.7677C14.4429 20.7677 14.7559 20.7677 15.7109 20.7127C16.4579 20.6979 17.1969 20.5593 17.8969 20.3008C19.1059 19.8398 20.0609 18.9001 20.5299 17.7126C20.7929 17.0245 20.9339 16.2991 20.9489 15.5628C20.9919 14.6172 21.0049 14.3174 21.0049 11.916C21.0029 9.51556 21.0029 9.21083 20.9469 8.27012ZM11.9939 16.4259C9.43995 16.4259 7.37095 14.3921 7.37095 11.8816C7.37095 9.37106 9.43995 7.33728 11.9939 7.33728C14.5459 7.33728 16.6169 9.37106 16.6169 11.8816C16.6169 14.3921 14.5459 16.4259 11.9939 16.4259ZM16.8009 8.22884C16.2039 8.22884 15.7229 7.75504 15.7229 7.16919C15.7229 6.58333 16.2039 6.10953 16.8009 6.10953C17.3959 6.10953 17.8779 6.58333 17.8779 7.16919C17.8779 7.75504 17.3959 8.22884 16.8009 8.22884Z" fill="white"/>
<path d="M11.994 14.8335C13.6525 14.8335 14.997 13.5119 14.997 11.8816C14.997 10.2513 13.6525 8.92969 11.994 8.92969C10.3355 8.92969 8.99097 10.2513 8.99097 11.8816C8.99097 13.5119 10.3355 14.8335 11.994 14.8335Z" fill="white"/>
</svg>
