<svg width="16" height="16" viewBox="0 0 16 16" fill="none" xmlns="http://www.w3.org/2000/svg">
<g id="like__51">
<path id="Shape" fill-rule="evenodd" clip-rule="evenodd" d="M7.125 14.9981C7.122 14.9981 5.609 15.0241 4.845 14.3631C4.02 13.6491 4 12.3731 4 12.3731V8.96114C4 8.96114 3.997 7.07614 4.754 6.20514C5.511 5.33314 7.185 4.31914 7.714 3.59114C8.243 2.86214 8.548 1.86914 9.386 1.86914C10.223 1.86914 10.625 2.39014 10.625 3.18014C10.625 3.55714 10.276 4.32414 10.276 5.37314C10.276 5.78114 10.616 5.99814 11.169 5.99814H13C14.263 5.99814 15 6.76914 15 7.99814C15 8.65114 14.641 9.22114 14.111 9.52214C14.12 9.59614 14.125 9.67114 14.125 9.74814C14.125 10.4011 13.766 10.9711 13.235 11.2721C13.245 11.3461 13.25 11.4211 13.25 11.4981C13.25 12.1511 12.891 12.7211 12.36 13.0221C12.37 13.0961 12.375 13.1711 12.375 13.2481C12.375 14.2141 11.591 14.9981 10.625 14.9981H7.125ZM3 7.56014C3 6.83614 2.724 6.24814 2 6.24814C1.276 6.24814 1 6.83614 1 7.56014V13.6851C1 14.4101 1.276 14.9981 2 14.9981C2.724 14.9981 3 14.4101 3 13.6851V7.56014Z" fill="#865480"/>
</g>
</svg>
