<svg width="17" height="18" viewBox="0 0 17 18" fill="none" xmlns="http://www.w3.org/2000/svg">
<path d="M2.12508 3.07178H14.8751C15.0629 3.07178 15.2431 3.14513 15.3759 3.27571C15.5088 3.40629 15.5834 3.58339 15.5834 3.76805V14.9085C15.5834 15.0931 15.5088 15.2702 15.3759 15.4008C15.2431 15.5314 15.0629 15.6048 14.8751 15.6048H2.12508C1.93722 15.6048 1.75705 15.5314 1.62421 15.4008C1.49138 15.2702 1.41675 15.0931 1.41675 14.9085V3.76805C1.41675 3.58339 1.49138 3.40629 1.62421 3.27571C1.75705 3.14513 1.93722 3.07178 2.12508 3.07178ZM8.54258 9.11755L4.00075 5.32632L3.08346 6.38745L8.55179 10.9515L13.9217 6.38397L12.9952 5.3305L8.54329 9.11755H8.54258Z" fill="#A6CD46"/>
</svg>
