<svg width="17" height="17" viewBox="0 0 17 17" fill="none" xmlns="http://www.w3.org/2000/svg">
<g id="mail__79">
<path id="Shape" fill-rule="evenodd" clip-rule="evenodd" d="M13.45 2.5C14.443 2.5 15.25 3.307 15.25 4.3V12.7C15.25 13.693 14.443 14.5 13.45 14.5H3.05C2.057 14.5 1.25 13.693 1.25 12.7V4.3C1.25 3.307 2.057 2.5 3.05 2.5H13.45ZM5.299 8.594L3.286 6.581C2.99 6.286 2.99 5.806 3.286 5.511C3.581 5.215 4.061 5.215 4.356 5.511L8.242 9.397L12.133 5.506C12.429 5.21 12.908 5.21 13.204 5.506C13.499 5.801 13.499 6.281 13.204 6.576L11.194 8.585L13.064 10.455C13.346 10.737 13.346 11.195 13.064 11.477C12.782 11.759 12.324 11.759 12.042 11.477L10.172 9.607L8.862 10.917C8.839 10.949 8.813 10.98 8.784 11.009C8.635 11.158 8.438 11.232 8.242 11.23C8.046 11.232 7.85 11.158 7.7 11.009C7.671 10.98 7.645 10.949 7.622 10.917L6.321 9.617L4.462 11.476C4.18 11.758 3.722 11.758 3.44 11.476C3.158 11.194 3.158 10.736 3.44 10.453L5.299 8.594Z" fill="#333333"/>
</g>
</svg>
