<svg width="17" height="17" viewBox="0 0 17 17" fill="none" xmlns="http://www.w3.org/2000/svg">
<g id="medicine__126">
<path id="Shape" fill-rule="evenodd" clip-rule="evenodd" d="M15.2114 2.03942C13.2604 0.0884219 10.0914 0.0884219 8.14042 2.03942L2.28942 7.89042C0.338422 9.84142 0.338422 13.0104 2.28942 14.9614C4.24042 16.9124 7.40942 16.9124 9.36042 14.9614L15.2114 9.11042C17.1624 7.15942 17.1624 3.99042 15.2114 2.03942ZM6.02242 6.98542C6.23342 6.77442 6.52542 6.66542 6.82242 6.68742C7.42042 6.78742 8.45842 7.04442 9.33242 7.91842C10.2104 8.79642 10.4594 9.84742 10.5274 10.4504C10.5454 10.7374 10.4394 11.0184 10.2364 11.2214C9.74342 11.7494 8.75042 12.7434 8.75042 12.7434L7.94642 13.5474C6.77542 14.7184 4.87442 14.7184 3.70342 13.5474C2.53242 12.3764 2.53242 10.4754 3.70342 9.30442L5.08942 7.91842C5.08942 7.91842 5.65742 7.35042 6.02242 6.98542Z" fill="#333333"/>
</g>
</svg>
