<svg width="16" height="16" viewBox="0 0 16 16" fill="none" xmlns="http://www.w3.org/2000/svg">
<g id="notification__179">
<path id="Shape" fill-rule="evenodd" clip-rule="evenodd" d="M3.28394 4.70759C3.68794 3.74159 4.40694 2.94859 5.33594 2.45859C5.47494 1.38759 6.39094 0.558594 7.50294 0.558594C8.61494 0.558594 9.53194 1.38759 9.66994 2.45859C10.5999 2.94859 11.3209 3.74159 11.7279 4.70759C11.7279 4.70759 12.2219 5.65359 12.3629 7.23459C12.4089 7.74459 12.5949 8.50759 12.8529 9.00759C13.1729 9.62759 13.9419 10.6816 14.0359 11.8256C14.0559 11.9326 14.0659 12.0406 14.0659 12.1506C14.0659 12.4536 13.9899 12.7476 13.8469 13.0266C13.8419 13.0376 13.8369 13.0486 13.8319 13.0596C13.7479 13.2476 13.6699 13.3626 13.5969 13.4176C12.6289 14.6736 10.2649 15.5596 7.50294 15.5596C4.73294 15.5596 2.36394 14.6686 1.40094 13.4076C1.33594 13.3516 1.26594 13.2476 1.19094 13.0866C1.02794 12.7896 0.939941 12.4756 0.939941 12.1506C0.939941 12.0276 0.953941 11.9066 0.978941 11.7876C1.08694 10.6576 1.84194 9.62059 2.15794 9.00759C2.41594 8.50759 2.60194 7.74459 2.64794 7.23459C2.78994 5.65359 3.28394 4.70759 3.28394 4.70759ZM7.50294 14.0616C4.93594 14.0616 2.66294 13.1906 2.66294 12.2866C2.66294 11.6606 3.85594 11.1166 5.32494 10.8416C5.42194 11.9566 6.35994 12.8326 7.50294 12.8326C8.64694 12.8326 9.58394 11.9566 9.68094 10.8416C11.1499 11.1166 12.3439 11.6606 12.3439 12.2866C12.3439 13.1906 10.0709 14.0616 7.50294 14.0616Z" fill="#865480"/>
</g>
</svg>
