<svg width="24" height="24" viewBox="0 0 24 24" fill="none" xmlns="http://www.w3.org/2000/svg">
<path fill-rule="evenodd" clip-rule="evenodd" d="M17.034 10.5H18.75C19.992 10.5 21 11.508 21 12.75C21 13.224 20.853 13.665 20.6025 14.028H20.601C20.5935 14.04 20.5845 14.0535 20.5755 14.0655L14.5035 22.653C14.469 22.704 14.4345 22.755 14.397 22.803V22.8045C13.8495 23.5305 12.9795 24 12 24C11.0205 24 10.1505 23.5305 9.603 22.8045V22.803C9.5655 22.755 9.531 22.704 9.4965 22.653L3.4245 14.0655C3.1575 13.695 3 13.2405 3 12.75C3 11.508 4.008 10.5 5.25 10.5H6.939C8.178 11.889 9.981 12.7635 11.9865 12.7635C13.992 12.7635 15.795 11.889 17.034 10.5ZM11.9865 1.5C14.4705 1.5 16.4865 3.516 16.4865 6C16.4865 8.484 14.4705 10.5 11.9865 10.5C9.5025 10.5 7.4865 8.484 7.4865 6C7.4865 3.516 9.5025 1.5 11.9865 1.5Z" fill="#141414"/>
</svg>
