<svg width="17" height="18" viewBox="0 0 17 18" fill="none" xmlns="http://www.w3.org/2000/svg">
<path d="M14.875 12.4158V14.8778C14.8751 15.0541 14.8071 15.2239 14.6849 15.3528C14.5626 15.4818 14.3951 15.5604 14.2162 15.5727C13.9067 15.5936 13.6538 15.6048 13.4583 15.6048C7.19879 15.6048 2.125 10.6173 2.125 4.46433C2.125 4.27216 2.13563 4.02359 2.15758 3.71931C2.17014 3.54347 2.25008 3.37884 2.38128 3.25866C2.51248 3.13849 2.68517 3.0717 2.8645 3.07178H5.36917C5.45703 3.07169 5.54179 3.10371 5.60697 3.16161C5.67216 3.21951 5.71313 3.29917 5.72192 3.3851C5.73821 3.54525 5.75308 3.67266 5.76725 3.76945C5.90802 4.73513 6.1965 5.67434 6.62292 6.55525C6.69021 6.6945 6.64629 6.86091 6.51879 6.95004L4.99021 8.0237C5.92482 10.1644 7.66031 11.8703 9.83804 12.789L10.9289 11.2892C10.9735 11.228 11.0385 11.184 11.1127 11.1651C11.1869 11.1461 11.2654 11.1533 11.3348 11.1855C12.2308 11.6039 13.186 11.8867 14.1681 12.0245C14.2665 12.0384 14.3962 12.0537 14.5577 12.0691C14.645 12.0779 14.7258 12.1182 14.7846 12.1823C14.8433 12.2463 14.8758 12.3296 14.8757 12.4158H14.875Z" fill="#A6CD46"/>
</svg>
