<svg width="10" height="10" viewBox="0 0 10 10" fill="none" xmlns="http://www.w3.org/2000/svg">
<path d="M3.69886 6.79545V2.60227H5.77273C6.00758 2.60227 6.23106 2.6553 6.44318 2.76136C6.65909 2.86364 6.83333 3.01705 6.96591 3.22159C7.10227 3.42614 7.17045 3.67803 7.17045 3.97727C7.17045 4.27651 7.10038 4.5322 6.96023 4.74432C6.82008 4.95265 6.63826 5.11174 6.41477 5.22159C6.19508 5.33144 5.96402 5.38636 5.72159 5.38636H4.27273V4.63068H5.47159C5.61932 4.63068 5.75568 4.57576 5.88068 4.46591C6.00568 4.35606 6.06818 4.19318 6.06818 3.97727C6.06818 3.75 6.00568 3.59091 5.88068 3.5C5.75568 3.40909 5.625 3.36364 5.48864 3.36364H4.73295V6.79545H3.69886ZM6.32955 4.84659L7.31818 6.79545H6.18182L5.24432 4.84659H6.32955ZM5.32955 9.29545C4.70076 9.29545 4.11174 9.17803 3.5625 8.94318C3.01326 8.70833 2.5303 8.38258 2.11364 7.96591C1.69697 7.54924 1.37121 7.06629 1.13636 6.51705C0.901515 5.9678 0.784091 5.37879 0.784091 4.75C0.784091 4.12121 0.901515 3.5322 1.13636 2.98295C1.37121 2.43371 1.69697 1.95076 2.11364 1.53409C2.5303 1.11742 3.01326 0.791667 3.5625 0.556818C4.11174 0.321969 4.70076 0.204545 5.32955 0.204545C5.95833 0.204545 6.54735 0.321969 7.09659 0.556818C7.64583 0.791667 8.12879 1.11742 8.54545 1.53409C8.96212 1.95076 9.28788 2.43371 9.52273 2.98295C9.75758 3.5322 9.875 4.12121 9.875 4.75C9.875 5.37879 9.75758 5.9678 9.52273 6.51705C9.28788 7.06629 8.96212 7.54924 8.54545 7.96591C8.12879 8.38258 7.64583 8.70833 7.09659 8.94318C6.54735 9.17803 5.95833 9.29545 5.32955 9.29545ZM5.32955 8.13068C5.95076 8.13068 6.51705 7.97917 7.02841 7.67614C7.53977 7.37311 7.94697 6.96591 8.25 6.45455C8.55682 5.93939 8.71023 5.37121 8.71023 4.75C8.71023 4.12879 8.55682 3.5625 8.25 3.05114C7.94697 2.53598 7.53977 2.12689 7.02841 1.82386C6.51705 1.52083 5.95076 1.36932 5.32955 1.36932C4.70455 1.36932 4.13636 1.52083 3.625 1.82386C3.11364 2.12689 2.70455 2.53598 2.39773 3.05114C2.0947 3.5625 1.94318 4.12879 1.94318 4.75C1.94318 5.37121 2.0947 5.9375 2.39773 6.44886C2.70455 6.96023 3.11364 7.36932 3.625 7.67614C4.13636 7.97917 4.70455 8.13068 5.32955 8.13068Z" fill="#858585"/>
</svg>
