<svg width="17" height="17" viewBox="0 0 17 17" fill="none" xmlns="http://www.w3.org/2000/svg">
<g id="realty__75">
<path id="Shape" fill-rule="evenodd" clip-rule="evenodd" d="M15.064 15.5H1.977C1.425 15.5 0.977 15.052 0.977 14.5C0.977 14.121 1.188 13.79 1.5 13.621V8.5C0.948 8.5 0.5 8.052 0.5 7.5C0.5 7.203 0.63 6.936 0.835 6.753L6.259 1.804C6.288 1.775 6.318 1.747 6.35 1.721C6.521 1.583 6.739 1.5 6.977 1.5H10.023C10.261 1.5 10.479 1.583 10.65 1.721C10.682 1.747 10.712 1.775 10.741 1.804L16.165 6.753C16.37 6.936 16.5 7.203 16.5 7.5C16.5 8.052 16.052 8.5 15.5 8.5V13.6C15.834 13.762 16.064 14.104 16.064 14.5C16.064 15.052 15.616 15.5 15.064 15.5ZM9.5 13.5H10.054C10.288 13.5 10.477 13.311 10.477 13.078V7.5H10.661C10.794 7.5 10.912 7.418 10.96 7.294C11.007 7.171 10.972 7.031 10.873 6.943C9.882 6.061 7.99 4.377 7.273 3.74C7.111 3.596 6.866 3.596 6.704 3.741C5.991 4.379 4.109 6.062 3.123 6.943C3.024 7.031 2.99 7.171 3.037 7.295C3.085 7.418 3.203 7.5 3.335 7.5H3.5V13.078C3.5 13.311 3.689 13.5 3.922 13.5H4.5V10.5C4.5 9.948 4.948 9.5 5.5 9.5C6.052 9.5 6.5 9.948 6.5 10.5V13.5H7.5V10.5C7.5 9.948 7.948 9.5 8.5 9.5C9.052 9.5 9.5 9.948 9.5 10.5V13.5ZM6.977 5.5C7.529 5.5 7.977 5.948 7.977 6.5C7.977 7.052 7.529 7.5 6.977 7.5C6.425 7.5 5.977 7.052 5.977 6.5C5.977 5.948 6.425 5.5 6.977 5.5Z" fill="#333333"/>
</g>
</svg>
