<svg width="16" height="17" viewBox="0 0 16 17" fill="none" xmlns="http://www.w3.org/2000/svg">
<g id="refresh__370">
<path id="Shape" fill-rule="evenodd" clip-rule="evenodd" d="M11.7291 2.515L12.6191 0.974999C12.8651 0.546999 13.3741 0.378999 13.7541 0.597999C13.9211 0.693999 14.0361 0.849999 14.0901 1.031L15.4841 4.89C15.5751 5.13 15.5551 5.423 15.4061 5.681C15.2581 5.938 15.0141 6.102 14.7601 6.143L10.7221 6.865C10.5381 6.908 10.3461 6.887 10.1781 6.791C9.79907 6.571 9.69007 6.046 9.93707 5.619L10.7291 4.247C10.5851 4.163 10.4361 4.085 10.2841 4.014C9.57807 3.684 8.81107 3.515 8.03307 3.5C7.96107 3.5 7.89007 3.5 7.81907 3.502C7.04307 3.526 6.27907 3.704 5.57907 4.042C4.48207 4.571 3.57507 5.467 3.03307 6.557C2.80307 7.021 2.63807 7.516 2.54707 8.026C2.44107 8.623 2.43307 9.238 2.52507 9.838C2.61007 10.395 2.78207 10.938 3.03307 11.443C3.32807 12.036 3.73107 12.574 4.21607 13.026C4.71807 13.494 5.30807 13.867 5.94607 14.119C6.60907 14.38 7.32007 14.509 8.03307 14.5C8.74207 14.491 9.44707 14.344 10.1011 14.068C10.7321 13.8 11.3121 13.414 11.8031 12.934C12.2771 12.472 12.6671 11.923 12.9481 11.323C13.0571 11.088 13.1501 10.846 13.2251 10.599C13.2251 10.599 13.2341 10.567 13.2511 10.503C13.3971 9.975 13.9401 9.662 14.4701 9.801C15.0001 9.94 15.3201 10.479 15.1881 11.011C15.1871 11.014 15.1861 11.016 15.1861 11.016C15.0681 11.44 14.9121 11.854 14.7211 12.251C14.3291 13.065 13.7891 13.805 13.1351 14.428C12.4591 15.073 11.6611 15.591 10.7961 15.945C9.89807 16.312 8.93107 16.5 7.96107 16.5C6.99207 16.5 6.02407 16.312 5.12707 15.945C4.26107 15.591 3.46507 15.073 2.78807 14.428C2.15607 13.826 1.63007 13.114 1.24207 12.333C0.89907 11.643 0.66407 10.902 0.54807 10.141C0.42807 9.355 0.43307 8.55 0.56307 7.766C0.68407 7.038 0.91307 6.328 1.24207 5.667C1.99407 4.154 3.26107 2.917 4.79207 2.202C5.43507 1.901 6.12007 1.694 6.82107 1.586C7.16707 1.533 7.51507 1.507 7.86507 1.501C7.96107 1.5 7.96107 1.5 8.05807 1.501C8.40807 1.507 8.75607 1.534 9.10207 1.586C9.80307 1.694 10.4881 1.901 11.1301 2.202C11.3351 2.297 11.5351 2.402 11.7291 2.515Z" fill="white"/>
</g>
</svg>
