<svg width="16" height="16" viewBox="0 0 16 16" fill="none" xmlns="http://www.w3.org/2000/svg">
<path fill-rule="evenodd" clip-rule="evenodd" d="M8 1.48828C2.698 1.48828 0 6.69828 0 8.00028C0 9.30228 2.791 14.5123 8 14.5123C13.209 14.5123 16 9.30228 16 8.00028C16 6.69828 13.302 1.48828 8 1.48828ZM8 11.7213C5.953 11.7213 4.279 10.0473 4.279 8.00028C4.279 5.95328 5.953 4.27928 8 4.27928C10.047 4.27928 11.721 5.95328 11.721 8.00028C11.721 10.0473 10.047 11.7213 8 11.7213ZM8 6.00028C9.143 6.00028 10 6.95328 10 8.00028C10 9.14328 9.048 10.0003 8 10.0003C6.857 10.0003 6 9.04828 6 8.00028C6 6.85828 6.857 6.00028 8 6.00028Z" fill="white"/>
</svg>
