<svg width="16" height="16" viewBox="0 0 16 16" fill="none" xmlns="http://www.w3.org/2000/svg">
<g id="show-off__30">
<path id="Shape" fill-rule="evenodd" clip-rule="evenodd" d="M11.949 2.57856L13.527 1.00056C13.933 0.593562 14.593 0.593562 15 1.00056C15.407 1.40756 15.407 2.06756 15 2.47356L2.473 15.0006C2.067 15.4076 1.407 15.4076 1 15.0006C0.593 14.5936 0.593 13.9336 1 13.5276L2.409 12.1186C0.823 10.5666 0 8.70756 0 8.00056C0 6.69856 2.698 1.48856 8 1.48856C9.536 1.48856 10.853 1.92556 11.949 2.57856ZM14.522 4.89256C15.505 6.16756 16 7.44256 16 8.00056C16 9.30256 13.209 14.5126 8 14.5126C7.042 14.5126 6.166 14.3366 5.374 14.0406L7.705 11.7096C7.802 11.7176 7.901 11.7216 8 11.7216C10.047 11.7216 11.721 10.0476 11.721 8.00056C11.721 7.90156 11.717 7.80256 11.709 7.70556L14.522 4.89256ZM9.787 4.73956C9.256 4.44656 8.647 4.27956 8 4.27956C5.953 4.27956 4.279 5.95356 4.279 8.00056C4.279 8.64756 4.446 9.25656 4.739 9.78756L6.058 8.46956C6.02 8.31756 6 8.16056 6 8.00056C6 6.85756 6.857 6.00056 8 6.00056C8.163 6.00056 8.321 6.01956 8.471 6.05656L9.787 4.73956Z" fill="white"/>
<mask id="mask0_2391_18242" style="mask-type:luminance" maskUnits="userSpaceOnUse" x="0" y="0" width="16" height="16">
<path id="Shape_2" fill-rule="evenodd" clip-rule="evenodd" d="M11.949 2.57856L13.527 1.00056C13.933 0.593562 14.593 0.593562 15 1.00056C15.407 1.40756 15.407 2.06756 15 2.47356L2.473 15.0006C2.067 15.4076 1.407 15.4076 1 15.0006C0.593 14.5936 0.593 13.9336 1 13.5276L2.409 12.1186C0.823 10.5666 0 8.70756 0 8.00056C0 6.69856 2.698 1.48856 8 1.48856C9.536 1.48856 10.853 1.92556 11.949 2.57856ZM14.522 4.89256C15.505 6.16756 16 7.44256 16 8.00056C16 9.30256 13.209 14.5126 8 14.5126C7.042 14.5126 6.166 14.3366 5.374 14.0406L7.705 11.7096C7.802 11.7176 7.901 11.7216 8 11.7216C10.047 11.7216 11.721 10.0476 11.721 8.00056C11.721 7.90156 11.717 7.80256 11.709 7.70556L14.522 4.89256ZM9.787 4.73956C9.256 4.44656 8.647 4.27956 8 4.27956C5.953 4.27956 4.279 5.95356 4.279 8.00056C4.279 8.64756 4.446 9.25656 4.739 9.78756L6.058 8.46956C6.02 8.31756 6 8.16056 6 8.00056C6 6.85756 6.857 6.00056 8 6.00056C8.163 6.00056 8.321 6.01956 8.471 6.05656L9.787 4.73956Z" fill="white"/>
</mask>
<g mask="url(#mask0_2391_18242)">
</g>
</g>
</svg>
