<svg width="14" height="14" viewBox="0 0 14 14" fill="none" xmlns="http://www.w3.org/2000/svg">
<path fill-rule="evenodd" clip-rule="evenodd" d="M6.92255 11.4468C6.10914 11.9982 4.73318 12.9094 3.35247 13.8236C3.13772 14.0084 2.83744 14.0541 2.53716 13.9316C2.10005 13.7526 2.01262 13.3043 2.18747 12.8569L3.32492 8.46885L0.280323 5.61543C0.11498 5.4783 0 5.27212 0 5.06594C0 4.61858 0.349691 4.34918 0.699382 4.34918H4.66477L6.26403 0.52906C6.41037 0.188672 6.67454 0 6.99953 0H7.00713C7.32831 0.00486268 7.59058 0.190617 7.73502 0.52906L9.33523 4.34918H13.2997C13.6494 4.34918 14 4.61858 14 5.06594C14 5.27212 13.8841 5.4783 13.7187 5.61543L10.6751 8.46885L11.8125 12.8569C11.9874 13.3043 11.9 13.7526 11.4619 13.9316C11.1626 14.0541 10.8623 14.0084 10.6466 13.8236C9.22215 12.8803 7.80153 11.9389 6.99953 11.3942L6.92255 11.4468Z" fill="#D9D9D9"/>
</svg>
