<svg width="24" height="24" viewBox="0 0 24 24" fill="none" xmlns="http://www.w3.org/2000/svg">
<path d="M19.633 10.8906C19.646 11.0656 19.646 11.2396 19.646 11.4136C19.646 16.7386 15.593 22.8746 8.186 22.8746C5.904 22.8746 3.784 22.2136 2 21.0656C2.324 21.1026 2.636 21.1156 2.973 21.1156C4.856 21.1156 6.589 20.4796 7.974 19.3946C6.203 19.3576 4.719 18.1976 4.207 16.6016C4.456 16.6386 4.706 16.6636 4.968 16.6636C5.329 16.6636 5.692 16.6136 6.029 16.5266C4.182 16.1526 2.799 14.5316 2.799 12.5736V12.5236C3.336 12.8226 3.959 13.0096 4.619 13.0346C3.534 12.3126 2.823 11.0776 2.823 9.6806C2.823 8.9326 3.022 8.2466 3.371 7.6486C5.354 10.0916 8.335 11.6886 11.677 11.8636C11.615 11.5636 11.577 11.2526 11.577 10.9406C11.577 8.7206 13.373 6.9126 15.605 6.9126C16.765 6.9126 17.812 7.3986 18.548 8.1846C19.458 8.0096 20.33 7.6726 21.104 7.2116C20.805 8.1466 20.168 8.9326 19.333 9.4316C20.144 9.3436 20.93 9.1196 21.652 8.8076C21.104 9.6056 20.419 10.3166 19.633 10.8906Z" fill="white"/>
</svg>
