<svg width="24" height="25" viewBox="0 0 24 25" fill="none" xmlns="http://www.w3.org/2000/svg">
<path d="M19.633 11.5884C19.646 11.7634 19.646 11.9374 19.646 12.1114C19.646 17.4364 15.593 23.5724 8.186 23.5724C5.904 23.5724 3.784 22.9114 2 21.7634C2.324 21.8004 2.636 21.8134 2.973 21.8134C4.856 21.8134 6.589 21.1774 7.974 20.0924C6.203 20.0554 4.719 18.8954 4.207 17.2994C4.456 17.3364 4.706 17.3614 4.968 17.3614C5.329 17.3614 5.692 17.3114 6.029 17.2244C4.182 16.8504 2.799 15.2294 2.799 13.2714V13.2214C3.336 13.5204 3.959 13.7074 4.619 13.7324C3.534 13.0104 2.823 11.7754 2.823 10.3784C2.823 9.63035 3.022 8.94435 3.371 8.34635C5.354 10.7894 8.335 12.3864 11.677 12.5614C11.615 12.2614 11.577 11.9504 11.577 11.6384C11.577 9.41835 13.373 7.61035 15.605 7.61035C16.765 7.61035 17.812 8.09635 18.548 8.88235C19.458 8.70735 20.33 8.37035 21.104 7.90935C20.805 8.84435 20.168 9.63035 19.333 10.1294C20.144 10.0414 20.93 9.81735 21.652 9.50535C21.104 10.3034 20.419 11.0144 19.633 11.5884Z" fill="#A6CD46"/>
</svg>
