<svg width="16" height="16" viewBox="0 0 16 16" fill="none" xmlns="http://www.w3.org/2000/svg">
<g id="undo__348">
<path id="Shape" fill-rule="evenodd" clip-rule="evenodd" d="M9 15H6C5.448 15 5 14.552 5 14C5 13.448 5.448 13 6 13H9C11.208 13 13 11.208 13 9C13 6.792 11.208 5 9 5H7V7.201C7 7.642 6.665 8 6.252 8C6.096 8 5.951 7.949 5.831 7.862L1.371 4.69C1.346 4.675 1.322 4.658 1.299 4.639C1.117 4.493 1 4.262 1 4.001C1 3.743 1.115 3.513 1.293 3.367H1.294C1.32 3.345 1.347 3.326 1.376 3.308L5.815 0.151C5.938 0.056 6.089 0 6.252 0C6.665 0 7 0.358 7 0.799V3H9C12.312 3 15 5.689 15 9C15 12.311 12.312 15 9 15Z" fill="#858585"/>
</g>
</svg>
