<svg width="24" height="25" viewBox="0 0 24 25" fill="none" xmlns="http://www.w3.org/2000/svg">
<g clip-path="url(#clip0_717_3818)">
<path d="M21.5931 7.90076C21.3631 7.04276 20.6881 6.36576 19.8311 6.13476C18.2651 5.70476 12.0001 5.69776 12.0001 5.69776C12.0001 5.69776 5.73609 5.69076 4.16909 6.10176C3.32909 6.33076 2.63509 7.02276 2.40309 7.87976C1.99009 9.44576 1.98609 12.6938 1.98609 12.6938C1.98609 12.6938 1.98209 15.9578 2.39209 17.5078C2.62209 18.3648 3.29709 19.0418 4.15509 19.2728C5.73709 19.7028 11.9851 19.7098 11.9851 19.7098C11.9851 19.7098 18.2501 19.7168 19.8161 19.3068C20.6721 19.0768 21.3501 18.4008 21.5831 17.5438C21.9971 15.9788 22.0001 12.7318 22.0001 12.7318C22.0001 12.7318 22.0201 9.46676 21.5931 7.90076ZM9.99609 15.7028L10.0011 9.70276L15.2081 12.7078L9.99609 15.7028Z" fill="#A6CD46"/>
</g>
<defs>
<clipPath id="clip0_717_3818">
<rect width="24" height="23.5915" fill="white" transform="translate(0 0.804199)"/>
</clipPath>
</defs>
</svg>
