<svg width="175" height="44" viewBox="0 0 175 44" fill="none" xmlns="http://www.w3.org/2000/svg">
<path d="M52.2957 41.5044C49.885 41.5044 47.8149 40.9832 46.0855 39.9407C44.3666 38.8982 43.0407 37.4583 42.1078 35.6211C41.1855 33.7735 40.7243 31.6473 40.7243 29.2424C40.7243 26.8271 41.196 24.6957 42.1393 22.8481C43.0826 20.9903 44.4137 19.5452 46.1327 18.5131C47.8621 17.4706 49.9059 16.9494 52.2642 16.9494C54.2242 16.9494 55.9589 17.3055 57.4682 18.0176C58.988 18.7195 60.1985 19.7155 61.0999 21.0057C61.4331 21.4787 61.7132 21.9813 61.9404 22.5135C62.5928 24.0419 61.2252 25.4956 59.5634 25.4956C58.1921 25.4956 57.0922 24.4447 56.2731 23.345C56.0839 23.091 55.8691 22.8531 55.6287 22.6314C54.8112 21.8573 53.7159 21.4702 52.3428 21.4702C51.1794 21.4702 50.1575 21.7799 49.277 22.3991C48.3966 23.0081 47.7101 23.8855 47.2175 25.0312C46.7353 26.1768 46.4943 27.5496 46.4943 29.1495C46.4943 30.7699 46.7353 32.1634 47.2175 33.3297C47.6996 34.4857 48.3756 35.3785 49.2456 36.0082C50.126 36.6274 51.1584 36.9371 52.3428 36.9371C53.1813 36.9371 53.9307 36.7823 54.5911 36.4726C55.2619 36.1527 55.8226 35.6933 56.2733 35.0947C56.2823 35.0828 56.2912 35.0708 56.3 35.0588C57.1092 33.961 58.1848 32.9117 59.5486 32.9117C61.2144 32.9117 62.575 34.3721 61.9283 35.9072C61.7102 36.4249 61.4446 36.9179 61.1314 37.3861C60.2614 38.6763 59.077 39.6878 57.5782 40.4206C56.0794 41.1431 54.3185 41.5044 52.2957 41.5044Z" fill="white"/>
<path d="M74.532 27.1058V38.1943C74.532 39.7659 73.258 41.0399 71.6864 41.0399C70.1147 41.0399 68.8407 39.7659 68.8407 38.1943V12.1148C68.8407 10.5779 70.0866 9.33203 71.6235 9.33203C73.1604 9.33203 74.4063 10.5779 74.4063 12.1148V21.1298C74.4063 21.2237 74.4824 21.2999 74.5764 21.2999C74.6448 21.2999 74.7064 21.2588 74.7339 21.1962C75.3008 19.9035 76.1611 18.8801 77.3148 18.126C78.5097 17.3416 80.0295 16.9494 81.8742 16.9494C83.5512 16.9494 85.0133 17.2951 86.2606 17.9867C87.5079 18.6782 88.4721 19.6897 89.1534 21.0212C89.8452 22.3527 90.1911 23.9784 90.1911 25.8982V38.1942C90.1911 39.7659 88.917 41.0399 87.3454 41.0399C85.7738 41.0399 84.4997 39.7659 84.4997 38.1942V26.7652C84.4997 25.1653 84.0805 23.9216 83.242 23.0339C82.414 22.1359 81.2505 21.687 79.7517 21.687C78.7455 21.687 77.8441 21.9037 77.0475 22.3372C76.2614 22.7604 75.643 23.3745 75.1923 24.1796C74.7521 24.9847 74.532 25.9601 74.532 27.1058Z" fill="white"/>
<path d="M112.911 31.0383V20.1047C112.911 18.5331 114.185 17.259 115.757 17.259C117.328 17.259 118.602 18.5331 118.602 20.1047V38.2807C118.602 39.8046 117.367 41.0399 115.843 41.0399H115.197C114.03 41.0399 113.084 40.0937 113.084 38.9266V36.9638C113.084 36.8806 113.016 36.8132 112.933 36.8132C112.872 36.8132 112.817 36.8503 112.793 36.9065C112.245 38.1957 111.362 39.2535 110.144 40.08C108.907 40.9264 107.382 41.3496 105.569 41.3496C103.986 41.3496 102.587 41.0038 101.371 40.3123C100.166 39.6104 99.2223 38.5937 98.5411 37.2622C97.8598 35.9204 97.5191 34.2999 97.5191 32.4008V20.1047C97.5191 18.5331 98.7932 17.259 100.365 17.259C101.936 17.259 103.21 18.5331 103.21 20.1047V31.5337C103.21 33.0407 103.63 34.238 104.468 35.1257C105.307 36.0133 106.407 36.4571 107.77 36.4571C108.608 36.4571 109.421 36.2559 110.207 35.8533C110.993 35.4508 111.637 34.8521 112.141 34.0574C112.654 33.2523 112.911 32.2459 112.911 31.0383Z" fill="white"/>
<path d="M129.031 41.0399C127.486 41.0399 126.233 39.787 126.233 38.2414V12.1777C126.233 10.6061 127.507 9.33203 129.079 9.33203C130.65 9.33203 131.924 10.6061 131.924 12.1777V21.0454C131.924 21.1261 131.99 21.1915 132.07 21.1915C132.125 21.1915 132.176 21.1606 132.201 21.1119C132.492 20.5572 132.892 19.9696 133.402 19.3491C133.937 18.6885 134.66 18.126 135.572 17.6615C136.484 17.1868 137.647 16.9494 139.062 16.9494C140.928 16.9494 142.61 17.419 144.109 18.3583C145.618 19.2872 146.813 20.6651 147.693 22.492C148.584 24.3086 149.03 26.5381 149.03 29.1804C149.03 31.7918 148.595 34.0109 147.725 35.8378C146.855 37.6648 145.671 38.5741 144.172 39.534C142.673 40.4939 140.975 40.9738 139.078 40.9738C137.16 41.0399 135.194 40.7979 133.434 39.1356C132.923 38.5262 132.518 37.9486 132.219 37.4027C132.182 37.3357 132.112 37.2932 132.036 37.2932C131.922 37.2932 131.83 37.3853 131.83 37.499V39.1666C131.83 40.2012 130.991 41.0399 129.957 41.0399H129.031ZM131.814 29.1495C131.814 30.6874 132.034 32.0343 132.475 33.1904C132.925 34.3464 133.57 35.2495 134.408 35.8998C135.257 36.5397 136.285 36.8597 137.49 36.8597C138.748 36.8597 139.801 36.5294 140.65 35.8688C141.499 35.1979 142.138 34.2844 142.568 33.1284C143.008 31.9621 143.228 30.6358 143.228 29.1495C143.228 27.6735 143.013 26.3626 142.584 25.2169C142.154 24.0712 141.515 23.1733 140.666 22.523C139.817 21.8727 138.758 21.5476 137.49 21.5476C136.274 21.5476 135.242 21.8624 134.393 22.492C133.544 23.1217 132.899 24.0042 132.459 25.1395C132.029 26.2749 131.814 27.6115 131.814 29.1495Z" fill="white"/>
<path d="M173.43 20.8202C174.274 22.158 173.133 23.6897 171.56 23.8586L170.942 23.9251C169.989 24.0274 169.125 23.392 168.523 22.6469C168.166 22.1927 167.684 21.8263 167.076 21.5476C166.468 21.2689 165.724 21.1296 164.844 21.1296C163.659 21.1296 162.664 21.3825 161.857 21.8882C161.06 22.394 160.667 23.0494 160.677 23.8545C160.667 24.546 160.924 25.1086 161.448 25.5421C161.982 25.9756 162.863 26.3317 164.089 26.6104L168.208 27.4774C170.493 27.9625 172.191 28.7314 173.302 29.7842C174.424 30.837 174.99 32.215 175 33.918C174.99 35.4147 174.544 36.7358 173.664 37.8815C172.794 39.0169 171.583 39.9045 170.032 40.5445C168.481 41.1844 166.699 41.5044 164.687 41.5044C161.731 41.5044 159.352 40.8954 157.549 39.6775C156.627 39.0493 155.895 38.2957 155.354 37.4165C154.485 36.0028 155.722 34.4203 157.375 34.2636C158.808 34.1277 160.019 35.2242 161.103 36.1698C161.221 36.2725 161.346 36.3683 161.479 36.4571C162.297 37.0042 163.361 37.2777 164.671 37.2777C166.023 37.2777 167.108 37.0042 167.925 36.4571C168.753 35.9101 169.167 35.234 169.167 34.429C169.167 33.7477 168.9 33.1852 168.365 32.7414C167.841 32.2975 167.024 31.9569 165.913 31.7195L161.794 30.868C159.477 30.3932 157.764 29.5933 156.653 28.4682C155.542 27.3329 154.991 25.8982 155.002 24.1641C154.991 22.6985 155.395 21.4289 156.212 20.3555C157.04 19.2717 158.188 18.4357 159.655 17.8473C161.133 17.2487 162.837 16.9494 164.765 16.9494C167.595 16.9494 169.822 17.5428 171.447 18.7298C172.263 19.3224 172.924 20.0192 173.43 20.8202Z" fill="white"/>
<path fill-rule="evenodd" clip-rule="evenodd" d="M19.2994 15.9441C18.7905 16.0005 18.3279 16.0242 17.9055 16.0173C17.8348 16.0162 17.7653 16.0142 17.6969 16.0113C16.9255 15.9793 16.2904 15.8396 15.7559 15.6121C15.8952 16.1193 16.0249 16.6805 16.0583 17.3571C16.0654 17.5016 16.0681 17.6502 16.0657 17.8038C16.047 19.0361 15.7052 20.5856 14.7373 22.833L14.7133 22.8887C14.6491 23.0368 14.5823 23.1879 14.5127 23.3421C14.4228 23.5413 14.3282 23.7456 14.2288 23.9554C14.1167 24.192 13.8716 24.3395 13.6066 24.3297C13.3416 24.3199 13.1084 24.1547 13.0147 23.9104C12.9236 23.6732 12.8339 23.4536 12.7456 23.2497C12.6852 23.1104 12.6255 22.9784 12.5664 22.8531L12.5493 22.8171C12.1778 22.0367 11.8318 21.5223 11.5133 21.129C11.2853 20.8474 11.0645 20.6191 10.8341 20.3827L10.8081 20.356L10.808 20.3559L10.808 20.3559C10.589 20.1312 10.3547 19.8909 10.1283 19.6092C9.91006 19.3375 9.70493 19.0347 9.51166 18.6676C9.42794 18.5085 9.34644 18.3375 9.26708 18.1516C8.99309 17.5102 8.74444 16.693 8.51692 15.5898C8.47518 15.3874 8.43415 15.1753 8.3938 14.953C8.37274 14.837 8.35187 14.7181 8.33119 14.5964C8.31069 14.71 8.29103 14.8217 8.27203 14.9315C8.23686 15.1349 8.20355 15.3348 8.17089 15.5309L8.17089 15.531L8.17088 15.531C8.0392 16.3217 7.91801 17.0493 7.72705 17.6827C7.6215 18.0328 7.49215 18.3649 7.32387 18.6792C7.09618 19.1044 6.79722 19.4972 6.38951 19.8581C6.10845 20.1069 5.78292 20.3342 5.40567 20.5452C5.15596 17.0233 5.1918 13.536 5.37621 10.4638C5.4693 8.91278 5.86086 6.87337 6.71589 5.2712C7.14108 4.47447 7.80375 3.55311 8.83147 2.97478C9.9896 2.32305 11.327 2.26817 12.6048 2.80642C14.5348 3.61944 15.8546 5.61695 16.807 8.29637C17.3108 9.71392 17.6724 11.0001 17.9846 12.1107L17.9846 12.1107L17.9847 12.1112C18.0352 12.2909 18.0844 12.466 18.1328 12.6363C18.4893 13.8927 18.792 14.8699 19.2109 15.7606C19.2396 15.8218 19.2691 15.883 19.2994 15.9441ZM20.5329 17.79C21.3799 18.759 22.6223 19.7728 24.5761 20.9118C30.792 24.1091 33.3198 29.4728 32.5488 34.3953C31.788 39.2522 27.8074 43.3219 22.0692 43.6045C16.8929 43.8594 13.0935 41.5593 10.5135 38.0037C8.02329 34.5716 6.66212 29.9899 5.94545 25.3942C5.80594 24.4996 5.68956 23.5957 5.59396 22.689C6.39661 22.3271 7.11042 21.8962 7.72025 21.3563L6.45737 19.9345L7.72025 21.3563C7.97824 21.128 8.20573 20.8908 8.40699 20.6469C8.46016 20.7178 8.51436 20.7876 8.56962 20.8564C8.85692 21.214 9.14822 21.5127 9.35964 21.7295L9.35968 21.7295L9.37708 21.7474L9.37714 21.7475L9.4029 21.7739L9.40302 21.774L9.40308 21.7741C9.63333 22.0103 9.79559 22.1799 9.95932 22.3821C10.2539 22.7459 10.6583 23.3472 11.1464 24.6192C11.5336 25.6281 12.4861 26.2881 13.5406 26.3271C14.5928 26.3661 15.581 25.7817 16.0383 24.8163C17.4119 21.9169 18.0011 19.8099 18.0623 18.0172C18.8092 18.0167 19.6286 17.9406 20.5329 17.79ZM19.4187 20.9487C22.6962 23.3693 30.48 31.8414 28.2678 38.6191C33.1839 32.0835 29.4477 23.6597 19.4187 20.9487Z" fill="white"/>
<path fill-rule="evenodd" clip-rule="evenodd" d="M10.9621 1.98054C13.128 2.34203 15.3764 3.7005 16.5883 6.76797C18.087 10.5615 22.1024 12.7546 24.9745 13.312C25.2689 13.3691 25.487 13.6147 25.5052 13.9097C25.5233 14.2046 25.3369 14.4744 25.0517 14.5661C21.6779 15.6506 19.3623 16.0806 17.6969 16.0113C16.9255 15.9793 16.2904 15.8396 15.7559 15.6121C15.8952 16.1193 16.0249 16.6805 16.0583 17.3571C16.1315 18.8443 15.7351 20.7758 14.2288 23.9554C14.1167 24.1921 13.8716 24.3395 13.6066 24.3297C13.3416 24.3199 13.1084 24.1547 13.0147 23.9104C12.4638 22.4749 11.9612 21.6822 11.5133 21.129C11.2853 20.8474 11.0645 20.6191 10.8341 20.3827L10.8081 20.356C10.589 20.1313 10.3547 19.8909 10.1283 19.6092C9.39799 18.7003 8.8146 17.4417 8.33119 14.5964C8.31068 14.71 8.29103 14.8217 8.27203 14.9315C8.23686 15.1349 8.20355 15.3349 8.17089 15.531C8.03921 16.3216 7.91801 17.0493 7.72704 17.6828C7.4787 18.5066 7.09855 19.2304 6.38951 19.8581C5.69653 20.4716 4.73327 20.9539 3.3909 21.3861C3.17082 21.457 2.92912 21.409 2.75416 21.2596C2.57921 21.1103 2.49664 20.8815 2.53666 20.6569C3.39582 15.8347 3.30808 12.835 3.24309 10.6126C3.23091 10.1962 3.21953 9.80709 3.21532 9.4384C3.20193 8.26347 3.25942 7.23767 3.64036 6.21567C4.02322 5.18852 4.70941 4.22435 5.85027 3.1123C6.33347 2.64129 7.10748 2.28097 7.97201 2.0758C8.85233 1.86689 9.89352 1.8022 10.9621 1.98054ZM8.28092 3.33812C7.5476 3.51215 7.02812 3.79117 6.77785 4.03512C5.71827 5.06795 5.17153 5.876 4.87815 6.66309C4.58285 7.45532 4.52081 8.28577 4.53379 9.42381C4.53785 9.77982 4.54906 10.1602 4.56115 10.5708C4.6218 12.6293 4.70484 15.4482 4.02221 19.7703C4.69339 19.4867 5.16433 19.1967 5.50801 18.8925C5.99117 18.4648 6.2644 17.9721 6.46302 17.3132C6.62804 16.7659 6.73194 16.1438 6.86198 15.3653C6.89636 15.1595 6.93256 14.9427 6.9722 14.7135C7.15798 13.6394 7.4103 12.3617 7.89862 10.8387C7.99276 10.5451 8.28343 10.357 8.5945 10.3884C8.90557 10.4198 9.15145 10.662 9.18317 10.9684C9.7459 16.4036 10.4413 17.9061 11.1623 18.8035C11.3489 19.0357 11.5447 19.2366 11.7747 19.4726L11.7854 19.4836C12.0161 19.7203 12.2746 19.9866 12.5442 20.3195C12.9007 20.7598 13.2651 21.3022 13.6393 22.0528C14.5842 19.7923 14.7905 18.4204 14.7413 17.42C14.7119 16.8246 14.5911 16.3325 14.4454 15.816C14.4243 15.7412 14.4023 15.6651 14.38 15.5876C14.2511 15.1396 14.1087 14.645 14.0289 14.0867C13.9876 13.7977 14.1472 13.5171 14.419 13.4008C14.6908 13.2844 15.0081 13.361 15.1944 13.588C15.7061 14.2112 16.3895 14.6574 17.7525 14.714C18.8539 14.7598 20.3814 14.5489 22.5666 13.9523C19.7815 12.8674 16.7092 10.6553 15.3594 7.23876C14.3255 4.62176 12.4776 3.55044 10.7417 3.26074C9.85942 3.11348 8.99843 3.16784 8.28092 3.33812Z" fill="white"/>
<path d="M6.77785 4.03512C7.02812 3.79117 7.5476 3.51215 8.28092 3.33812C8.99843 3.16784 9.85942 3.11348 10.7417 3.26074C12.4776 3.55044 14.3255 4.62176 15.3594 7.23876C16.7092 10.6553 19.7815 12.8674 22.5666 13.9523C20.3814 14.5489 18.8539 14.7598 17.7525 14.714C16.3895 14.6574 15.7061 14.2112 15.1944 13.588C15.0081 13.361 14.6908 13.2844 14.419 13.4008C14.1472 13.5171 13.9876 13.7977 14.0289 14.0867C14.1087 14.645 14.2511 15.1396 14.38 15.5876C14.4023 15.6651 14.4243 15.7412 14.4454 15.816C14.5911 16.3325 14.7119 16.8246 14.7413 17.42C14.7905 18.4204 14.5842 19.7923 13.6393 22.0528C13.2651 21.3022 12.9007 20.7598 12.5442 20.3195C12.2746 19.9866 12.0161 19.7203 11.7854 19.4836L11.7747 19.4726C11.5447 19.2366 11.3489 19.0357 11.1623 18.8035C10.4413 17.9061 9.7459 16.4036 9.18317 10.9684C9.15145 10.662 8.90557 10.4198 8.5945 10.3884C8.28343 10.357 7.99276 10.5451 7.89862 10.8387C7.4103 12.3617 7.15798 13.6394 6.9722 14.7135C6.93256 14.9427 6.89636 15.1595 6.86198 15.3653C6.73194 16.1438 6.62804 16.7659 6.46302 17.3132C6.2644 17.9721 5.99117 18.4648 5.50801 18.8925C5.16433 19.1967 4.69339 19.4867 4.02221 19.7703C4.70484 15.4482 4.6218 12.6293 4.56115 10.5708C4.54906 10.1602 4.53785 9.77982 4.53379 9.42381C4.52081 8.28577 4.58285 7.45532 4.87815 6.66309C5.17153 5.876 5.71827 5.06795 6.77785 4.03512Z" fill="white"/>
</svg>
