<svg width="112" height="43" viewBox="0 0 112 43" fill="none" xmlns="http://www.w3.org/2000/svg">
<path d="M9.46936 41.7914C7.49657 41.7914 5.80255 41.3582 4.3873 40.4919C2.98062 39.6256 1.89559 38.4291 1.13221 36.9023C0.377402 35.367 0 33.6001 0 31.6015C0 29.5944 0.385979 27.8232 1.15794 26.2879C1.9299 24.744 3.01921 23.5431 4.42589 22.6854C5.84115 21.8191 7.51373 21.386 9.44363 21.386C11.0476 21.386 12.4671 21.6819 13.7023 22.2737C14.946 22.857 15.9367 23.6847 16.6743 24.7568C17.1702 25.4719 17.5227 26.2684 17.7318 27.1463C17.9017 27.8602 17.3106 28.488 16.5768 28.488H14.5306C13.9232 28.488 13.4221 28.045 13.1781 27.4888C12.9489 26.9661 12.6218 26.5057 12.1969 26.1078C11.5279 25.4645 10.6316 25.1428 9.50796 25.1428C8.55587 25.1428 7.71958 25.4001 6.99909 25.9148C6.2786 26.4208 5.71678 27.1499 5.31365 28.102C4.91909 29.0541 4.72181 30.1949 4.72181 31.5243C4.72181 32.871 4.91909 34.0289 5.31365 34.9982C5.7082 35.9588 6.26144 36.7007 6.97336 37.224C7.69385 37.7386 8.53872 37.9959 9.50796 37.9959C10.1941 37.9959 10.8074 37.8673 11.3478 37.6099C11.8967 37.344 12.3556 36.9624 12.7244 36.4649C12.9067 36.2191 13.0606 35.9471 13.1863 35.649C13.4216 35.0909 13.9212 34.6508 14.5269 34.6508H16.5667C17.3042 34.6508 17.8957 35.2844 17.7223 36.0013C17.5144 36.8608 17.1737 37.65 16.7 38.369C15.9881 39.4412 15.0189 40.2818 13.7923 40.8908C12.5658 41.4912 11.1248 41.7914 9.46936 41.7914Z" fill="#141414"/>
<path d="M26.9889 29.8261V40.1417C26.9889 40.8397 26.4231 41.4054 25.7252 41.4054H23.5951C22.8972 41.4054 22.3314 40.8397 22.3314 40.1417V16.3196C22.3314 15.6217 22.8972 15.0559 23.5951 15.0559H25.6223C26.3202 15.0559 26.886 15.6217 26.886 16.3196V24.8624C26.886 24.9391 26.9482 25.0013 27.0249 25.0013C27.081 25.0013 27.1315 24.9674 27.1537 24.9159C27.6177 23.8413 28.3218 22.9906 29.2662 22.3638C30.244 21.7119 31.4877 21.386 32.9973 21.386C34.3697 21.386 35.5662 21.6733 36.5869 22.248C37.6076 22.8227 38.3967 23.6633 38.9543 24.7697C39.5204 25.8762 39.8034 27.2271 39.8034 28.8225V40.1417C39.8034 40.8397 39.2376 41.4054 38.5397 41.4054H36.4096C35.7117 41.4054 35.1459 40.8397 35.1459 40.1417V29.543C35.1459 28.2135 34.8028 27.18 34.1167 26.4423C33.439 25.6961 32.487 25.323 31.2604 25.323C30.437 25.323 29.6993 25.5031 29.0475 25.8633C28.4042 26.215 27.8981 26.7254 27.5293 27.3944C27.169 28.0634 26.9889 28.874 26.9889 29.8261Z" fill="#141414"/>
<path d="M57.6753 33.094V22.907C57.6753 22.209 58.2411 21.6432 58.939 21.6432H61.0691C61.767 21.6432 62.3328 22.209 62.3328 22.907V40.1417C62.3328 40.8396 61.767 41.4054 61.0691 41.4054H59.0806C58.3826 41.4054 57.8168 40.8396 57.8168 40.1417V38.0159C57.8168 37.948 57.7618 37.893 57.694 37.893C57.6438 37.893 57.5988 37.9235 57.5794 37.9698C57.1307 39.0414 56.4079 39.9207 55.4109 40.6077C54.3988 41.311 53.1508 41.6627 51.6669 41.6627C50.3717 41.6627 49.2267 41.3754 48.2317 40.8007C47.2453 40.2174 46.4733 39.3726 45.9158 38.2661C45.3583 37.151 45.0795 35.8044 45.0795 34.2262V22.907C45.0795 22.209 45.6453 21.6432 46.3432 21.6432H48.4733C49.1712 21.6432 49.737 22.209 49.737 22.907V33.5057C49.737 34.758 50.0801 35.7529 50.7663 36.4906C51.4525 37.2282 52.3531 37.5971 53.4681 37.5971C54.1543 37.5971 54.8191 37.4298 55.4624 37.0953C56.1057 36.7608 56.6332 36.2633 57.0449 35.6028C57.4652 34.9338 57.6753 34.0975 57.6753 33.094Z" fill="#141414"/>
<path fill-rule="evenodd" clip-rule="evenodd" d="M72.9593 2.83904C71.7347 2.31519 70.4529 2.36861 69.3429 3.0029C68.3579 3.56576 67.7228 4.46246 67.3153 5.23788C66.4958 6.79718 66.1205 8.78203 66.0313 10.2915C65.7732 14.658 65.8188 19.886 66.5769 24.8225C67.2638 29.2952 68.5683 33.7544 70.955 37.0946C73.4277 40.5551 77.0691 42.7936 82.0302 42.5455C87.5297 42.2705 91.3447 38.3097 92.0739 33.5827C92.8129 28.7919 90.3901 23.5718 84.4328 20.46C81.2275 18.5626 80.0202 17.022 79.2906 15.4466C78.8892 14.5797 78.5991 13.6287 78.2574 12.4059C78.2111 12.2401 78.1639 12.0697 78.1155 11.8949L78.1154 11.8944C77.8161 10.8135 77.4696 9.56176 76.9867 8.18211C76.074 5.57437 74.809 3.63031 72.9593 2.83904ZM71.3424 7.35428C70.9284 8.14209 70.6398 9.42569 70.5728 10.5599C70.3271 14.7163 70.3784 19.6057 71.0735 24.132C71.7149 28.3086 72.8718 31.9519 74.6565 34.4497C76.3553 36.8271 78.5954 38.1622 81.803 38.0018C85.023 37.8408 87.1585 35.6067 87.5777 32.8892C87.9846 30.2509 86.7717 26.7953 82.2823 24.4694L82.2272 24.4409L82.1738 24.4094C78.3403 22.1504 76.3736 19.9737 75.1624 17.3583C74.5916 16.1257 74.2191 14.8587 73.8758 13.6302C73.8256 13.4503 73.7758 13.2706 73.7259 13.0905C73.4258 12.0078 73.1218 10.9109 72.6927 9.685C72.1691 8.18897 71.6904 7.51516 71.4143 7.22498C71.3917 7.26326 71.3677 7.3062 71.3424 7.35428Z" fill="#865480"/>
<path fill-rule="evenodd" clip-rule="evenodd" d="M71.3842 2.03548C73.46 2.3873 75.6149 3.70942 76.7764 6.69482C78.2128 10.3868 82.0612 12.5213 84.8139 13.0637C85.0961 13.1193 85.3051 13.3584 85.3225 13.6455C85.3399 13.9325 85.1612 14.1951 84.8878 14.2843C81.6543 15.3398 79.4351 15.7583 77.8389 15.6909C77.0996 15.6597 76.4909 15.5238 75.9786 15.3023C76.1122 15.796 76.2365 16.3422 76.2684 17.0007C76.3386 18.448 75.9587 20.3278 74.5151 23.4224C74.4076 23.6527 74.1727 23.7962 73.9187 23.7867C73.6648 23.7771 73.4412 23.6164 73.3514 23.3786C72.8234 21.9815 72.3418 21.2101 71.9124 20.6716C71.6939 20.3976 71.4824 20.1754 71.2615 19.9453L71.2366 19.9193C71.0266 19.7006 70.802 19.4667 70.5851 19.1925C69.8851 18.3079 69.326 17.083 68.8627 14.3138C68.843 14.4243 68.8242 14.533 68.806 14.64C68.7723 14.8379 68.7404 15.0325 68.7091 15.2234C68.5829 15.9929 68.4667 16.7011 68.2837 17.3176C68.0457 18.1193 67.6813 18.8239 67.0018 19.4347C66.3376 20.0318 65.4144 20.5012 64.1279 20.9219C63.9169 20.9908 63.6853 20.9441 63.5176 20.7987C63.3499 20.6534 63.2708 20.4307 63.3091 20.2121C64.1326 15.519 64.0485 12.5995 63.9862 10.4366C63.9745 10.0313 63.9636 9.65263 63.9596 9.2938C63.9467 8.15031 64.0018 7.15195 64.3669 6.15729C64.7339 5.15763 65.3915 4.21926 66.4849 3.13696C66.9481 2.67855 67.6899 2.32788 68.5185 2.1282C69.3622 1.92487 70.3601 1.86191 71.3842 2.03548ZM68.8145 3.35674C68.1117 3.52611 67.6138 3.79767 67.374 4.03509C66.3584 5.04029 65.8344 5.82672 65.5533 6.59275C65.2702 7.36378 65.2108 8.17201 65.2232 9.27961C65.2271 9.62609 65.2379 9.99627 65.2494 10.3959C65.3076 12.3994 65.3872 15.1428 64.7329 19.3492C65.3762 19.0733 65.8275 18.791 66.1569 18.4949C66.62 18.0787 66.8819 17.5992 67.0722 16.9579C67.2304 16.4252 67.33 15.8198 67.4546 15.0621C67.4875 14.8618 67.5222 14.6508 67.5602 14.4278C67.7383 13.3824 67.9801 12.1389 68.4481 10.6567C68.5384 10.3709 68.8169 10.1878 69.1151 10.2184C69.4132 10.2489 69.6489 10.4847 69.6793 10.7828C70.2186 16.0727 70.8851 17.535 71.5761 18.4083C71.7549 18.6344 71.9426 18.8298 72.163 19.0595L72.1733 19.0703C72.3944 19.3006 72.6422 19.5598 72.9005 19.8838C73.2422 20.3123 73.5915 20.8401 73.9501 21.5707C74.8557 19.3707 75.0534 18.0354 75.0062 17.0619C74.9781 16.4824 74.8623 16.0034 74.7226 15.5008C74.7024 15.4279 74.6814 15.3539 74.66 15.2784C74.5364 14.8424 74.4 14.3611 74.3235 13.8178C74.2838 13.5365 74.4368 13.2633 74.6973 13.1501C74.9579 13.0369 75.2619 13.1115 75.4405 13.3324C75.9309 13.9389 76.5859 14.3732 77.8922 14.4283C78.9478 14.4728 80.4118 14.2675 82.5061 13.6869C79.8368 12.6311 76.8923 10.4781 75.5987 7.15302C74.6078 4.60604 72.8366 3.56338 71.173 3.28143C70.3274 3.13811 69.5022 3.19102 68.8145 3.35674Z" fill="#A6CD46"/>
<path d="M67.374 4.03509C67.6138 3.79767 68.1117 3.52611 68.8145 3.35674C69.5022 3.19102 70.3274 3.13811 71.173 3.28143C72.8366 3.56338 74.6078 4.60604 75.5987 7.15302C76.8923 10.4781 79.8368 12.6311 82.5061 13.6869C80.4118 14.2675 78.9478 14.4728 77.8922 14.4283C76.5859 14.3732 75.9309 13.9389 75.4405 13.3324C75.2619 13.1115 74.9579 13.0369 74.6973 13.1501C74.4368 13.2633 74.2838 13.5365 74.3235 13.8178C74.4 14.3611 74.5364 14.8424 74.66 15.2784C74.6814 15.3539 74.7024 15.4279 74.7226 15.5008C74.8623 16.0034 74.9781 16.4824 75.0062 17.0619C75.0534 18.0354 74.8557 19.3707 73.9501 21.5707C73.5915 20.8401 73.2422 20.3123 72.9005 19.8838C72.6422 19.5598 72.3944 19.3006 72.1733 19.0703L72.163 19.0595C71.9426 18.8298 71.7549 18.6344 71.5761 18.4083C70.8851 17.535 70.2186 16.0727 69.6793 10.7828C69.6489 10.4847 69.4132 10.2489 69.1151 10.2184C68.8169 10.1878 68.5384 10.3709 68.4481 10.6567C67.9801 12.1389 67.7383 13.3824 67.5602 14.4278C67.5222 14.6508 67.4875 14.8618 67.4546 15.0621C67.33 15.8198 67.2304 16.4252 67.0722 16.9579C66.8819 17.5992 66.62 18.0787 66.1569 18.4949C65.8275 18.791 65.3762 19.0733 64.7329 19.3492C65.3872 15.1428 65.3076 12.3994 65.2494 10.3959C65.2379 9.99627 65.2271 9.62609 65.2232 9.27961C65.2108 8.17201 65.2702 7.36378 65.5533 6.59275C65.8344 5.82672 66.3584 5.04029 67.374 4.03509Z" fill="#A6CD46"/>
<path d="M110.728 24.7304C111.406 25.8396 110.468 27.0953 109.175 27.2363L108.67 27.2914C107.877 27.3779 107.157 26.8476 106.661 26.2231C106.367 25.843 105.969 25.5362 105.468 25.303C104.967 25.0697 104.354 24.953 103.628 24.953C102.652 24.953 101.831 25.1647 101.165 25.5881C100.509 26.0114 100.185 26.5601 100.193 27.234C100.185 27.8129 100.397 28.2838 100.829 28.6466C101.269 29.0095 101.995 29.3076 103.006 29.5409L106.401 30.2666C108.285 30.6727 109.685 31.3164 110.6 32.1977C111.525 33.079 111.991 34.2324 112 35.658C111.991 36.9108 111.624 38.0167 110.898 38.9758C110.181 39.9262 109.183 40.6692 107.905 41.2049C106.626 41.7406 105.157 42.0084 103.498 42.0084C101.062 42.0084 99.1005 41.4987 97.6144 40.4791C96.8415 39.9444 96.2311 39.301 95.783 38.549C95.0846 37.3765 96.1028 36.0791 97.4612 35.9482C98.6464 35.8341 99.6465 36.7408 100.535 37.534C100.635 37.6234 100.741 37.7065 100.854 37.7835C101.528 38.2414 102.405 38.4703 103.485 38.4703C104.6 38.4703 105.494 38.2414 106.168 37.7835C106.851 37.3255 107.192 36.7596 107.192 36.0857C107.192 35.5155 106.972 35.0446 106.531 34.6731C106.099 34.3015 105.425 34.0164 104.509 33.8177L101.114 33.1049C99.2042 32.7074 97.7915 32.0378 96.8757 31.0961C95.9599 30.1457 95.5063 28.9447 95.5149 27.4932C95.5063 26.2663 95.8389 25.2036 96.5128 24.305C97.1954 23.3978 98.1415 22.698 99.3511 22.2055C100.569 21.7044 101.973 21.4538 103.563 21.4538C105.896 21.4538 107.732 21.9506 109.071 22.9442C109.756 23.4492 110.308 24.0446 110.728 24.7304Z" fill="#141414"/>
</svg>
