<svg width="145" height="42" viewBox="0 0 145 42" fill="none" xmlns="http://www.w3.org/2000/svg">
<path fill-rule="evenodd" clip-rule="evenodd" d="M0 29.7763V14.8882V0H72.5H145V14.8882V29.7763L124.209 29.7675L103.417 29.7588V28.5866V27.4145L123.004 27.4057L142.59 27.3969V14.8881V2.3793H72.5H2.40958V14.8881V27.3969L21.9963 27.4057L41.583 27.4145V28.5866V29.7588L20.7915 29.7675L0 29.7763ZM17.0442 23.1632V15.2205V7.27786L22.5278 7.27828C30.6173 7.27891 31.819 7.3237 32.9053 7.66503C33.6973 7.91387 34.3247 8.28574 34.8833 8.83732C35.7797 9.72242 36.1485 10.6353 36.204 12.1064C36.281 14.1459 35.5518 15.6611 34.098 16.4825C33.4966 16.8223 32.6558 17.0915 31.7143 17.2459C31.3939 17.2984 29.5599 17.4949 29.3899 17.4949C29.3821 17.4949 29.3756 17.5105 29.3756 17.5295C29.3756 17.602 31.1369 18.9334 33.7989 20.8731C34.273 21.2185 34.871 21.6548 35.1277 21.8425C35.3844 22.0303 35.8694 22.3834 36.2055 22.6271C36.5415 22.8709 36.8115 23.0753 36.8054 23.0813C36.7928 23.0938 34.307 23.1582 33.501 23.1669L32.9667 23.1728L32.438 22.7767C32.1472 22.5588 31.6461 22.1818 31.3245 21.9388C30.774 21.5227 30.3869 21.2327 28.7555 20.0141C28.3852 19.7375 27.8909 19.3673 27.657 19.1916C27.4231 19.0159 26.8063 18.5544 26.2861 18.166L25.3405 17.4599H22.468H19.5956V20.3115V23.1632H18.3199H17.0442ZM38.7659 23.1632V15.2205V7.27786H47.5538H56.3416V8.46751V9.65717H48.8294H41.3172V11.7041V13.751H48.1562H54.9951V14.8881V16.0253H48.1562H41.3172V18.3995V20.7736L46.411 20.7964C49.2126 20.8088 52.6946 20.8291 54.1488 20.8415L56.7929 20.8639L56.8146 21.2001C56.8265 21.3849 56.8469 21.9022 56.86 22.3497L56.8838 23.1632H47.8248H38.7659ZM59.4245 23.1632V15.2205V7.27786L60.7267 7.27821L62.029 7.27853L63.4134 8.5116C64.1749 9.18977 65.2512 10.1477 65.8053 10.6404L68.4781 13.017C69.3941 13.8314 70.6937 14.9874 71.3661 15.5859C72.0385 16.1844 72.8836 16.9353 73.2441 17.2547C73.6047 17.574 74.4259 18.3033 75.069 18.8752L76.2384 19.9151L76.2599 18.2414C76.2717 17.3208 76.2836 15.1033 76.2865 13.3136C76.2893 11.5239 76.3022 9.43369 76.3151 8.66871L76.3385 7.27786H77.6084H78.8783V15.2205V23.1632L77.5761 23.1621C76.5962 23.1612 76.2596 23.1503 76.2161 23.1176C76.1844 23.0937 76.017 22.9472 75.844 22.7919C75.6712 22.6366 75.0593 22.0927 74.4844 21.5832C73.9094 21.0738 72.3938 19.729 71.1162 18.5948C66.8847 14.838 64.3744 12.6173 63.3027 11.6824C62.2162 10.7345 62.0838 10.6157 62.047 10.6403C62.0398 10.6451 62.0363 10.6554 62.03 10.666C62.0083 10.7029 61.9905 13.0147 61.9817 16.9438L61.9678 23.1632H60.6961H59.4245ZM81.6777 23.1632V15.2205V7.27786H90.4655H99.2534V8.46744V9.65699L91.7501 9.66584L84.2467 9.67466L84.2376 11.7127L84.2284 13.7508L91.0765 13.7596L97.9246 13.7685V14.8881V16.0078L91.0857 16.0253L84.2467 16.0428V18.4046V20.7664L89.0481 20.7918C91.6889 20.8057 95.1752 20.8273 96.7955 20.8397L99.7414 20.8623L99.764 21.7766C99.7765 22.2794 99.7959 22.7971 99.8071 22.927L99.8276 23.1632H90.7526H81.6777ZM100.821 7.38458C100.826 7.35404 100.885 7.31996 100.955 7.30652C101.08 7.28241 102.088 7.29616 103.068 7.33542L103.605 7.35691L103.889 8.00841C104.045 8.36678 104.407 9.18743 104.693 9.83211C105.556 11.775 107.07 15.2156 107.758 16.7951C108.85 19.3056 109.11 19.8933 109.135 19.9184C109.151 19.9338 109.229 19.7609 109.308 19.5342C109.388 19.3074 109.639 18.6023 109.866 17.9672C110.093 17.3322 110.388 16.5055 110.521 16.1303C110.654 15.755 110.894 15.0858 111.053 14.6432C111.213 14.2006 111.404 13.6652 111.478 13.4536C111.553 13.2419 111.792 12.5806 112.01 11.984C112.228 11.3874 112.451 10.7733 112.505 10.6194C112.595 10.3625 112.924 9.46273 113.414 8.13511C113.52 7.84645 113.627 7.55516 113.651 7.4878L113.696 7.36534L114.076 7.342C114.285 7.32919 114.897 7.31345 115.437 7.30701L116.417 7.29536L116.641 7.90768C117.024 8.95328 117.472 10.1713 117.975 11.535C118.406 12.7011 118.628 13.3105 118.796 13.786C118.86 13.9688 119.036 14.4569 119.186 14.8706C119.336 15.2844 119.48 15.6859 119.506 15.7629C119.874 16.8675 120.923 19.7597 120.976 19.8172C120.992 19.834 121.044 19.771 121.092 19.6772C121.24 19.39 121.915 17.886 122.411 16.7426C123.563 14.0824 126.526 7.41824 126.58 7.36471C126.587 7.35806 127.102 7.335 127.725 7.31341C129.025 7.26842 129.267 7.28465 129.267 7.41698C129.267 7.45243 129.153 7.73875 129.015 8.0532C128.876 8.36769 128.719 8.72731 128.665 8.8524C128.557 9.10174 127.985 10.3944 127.797 10.8118C127.732 10.9562 127.42 11.6568 127.105 12.3689C126.526 13.6743 126.314 14.151 125.95 14.967C125.841 15.2123 125.608 15.7358 125.432 16.1303C125.257 16.5248 125.061 16.9656 124.996 17.11C124.932 17.2543 124.728 17.7109 124.543 18.1247C124.359 18.5384 124.118 19.0777 124.009 19.3229C123.899 19.5683 123.72 19.9698 123.611 20.2152C123.503 20.4606 123.329 20.8504 123.226 21.0813C122.956 21.6824 122.626 22.4265 122.453 22.8213L122.304 23.1616L120.927 23.1537L119.55 23.1457L119.446 22.8658C119.388 22.7118 119.206 22.2159 119.041 21.7636C118.875 21.3114 118.709 20.8626 118.672 20.7664C118.634 20.6702 118.54 20.4183 118.464 20.2066C118.387 19.9949 118.162 19.3808 117.963 18.842C117.441 17.4289 117.193 16.753 117.059 16.3752C116.994 16.1924 116.827 15.7279 116.687 15.343C116.548 14.9581 116.308 14.2889 116.156 13.8559C115.555 12.1507 115.188 11.1497 115.129 11.057C115.107 11.0231 115.084 11.0169 115.063 11.0395C114.999 11.1072 114.702 11.8891 114.065 13.6635C113.836 14.303 112.977 16.6803 112.575 17.7923C112.4 18.2734 111.886 19.6747 111.432 20.9064L110.607 23.1457H109.333C108.12 23.1457 108.053 23.1423 107.938 23.0753C107.808 23.0003 107.747 22.8698 105.969 18.8945C105.681 18.2498 105.377 17.5727 105.294 17.3899C105.211 17.2071 104.927 16.5773 104.665 15.9903C102.684 11.5683 101.164 8.19092 100.974 7.78696C100.884 7.5955 100.815 7.41443 100.821 7.38458ZM31.8179 9.85192C31.4085 9.75839 30.237 9.72763 25.7294 9.69215C23.2855 9.67291 20.9056 9.65717 20.4407 9.65717H19.5956V12.4388V15.2205L23.2719 15.2203C26.8742 15.22 29.2409 15.1849 30.3286 15.1157C31.4609 15.0437 32.1416 14.8487 32.6893 14.4394C33.0203 14.1921 33.3953 13.6761 33.5069 13.3143C33.5792 13.0799 33.611 12.1816 33.562 11.7565C33.5314 11.4904 33.498 11.374 33.3948 11.1725C33.0799 10.5581 32.3938 9.98345 31.8179 9.85192ZM48.7334 27.8912C48.4526 27.4222 48.1981 27.0009 48.1677 26.9552L48.1126 26.8721L48.657 26.8721L49.2015 26.8722L49.6504 27.6157C49.8974 28.0246 50.3134 28.7134 50.5749 29.1464C51.431 30.5638 52.0324 31.5066 52.1316 31.5871C52.1954 31.6389 52.3061 31.4775 53.1367 30.122C54.0802 28.5823 54.4347 28.0168 54.8036 27.4625L55.1675 26.9157L55.3328 26.8913C55.4983 26.8668 55.986 26.8968 56.1021 26.9387C56.1535 26.9572 55.8734 27.4295 54.4237 29.7682L52.6835 32.5754H52.1428C51.7532 32.5754 51.5919 32.5632 51.5656 32.5317C51.5176 32.4739 49.3842 28.9785 48.7334 27.8912ZM56.7314 32.5754V29.7238V26.8721H57.2098H57.6882V29.7238V32.5754H57.2098H56.7314ZM58.326 27.2978C58.326 27.0893 58.3366 26.9083 58.3496 26.8955C58.3626 26.8826 59.9093 26.8721 61.7868 26.8721H65.2004V27.2745V27.6769H63.7301H62.2598L62.2507 30.1174L62.2416 32.5579L61.7721 32.5677L61.3025 32.5775V30.1272V27.6769H59.8143H58.326V27.2978ZM67.7741 27.0565C67.8217 26.9943 67.9118 26.928 67.9744 26.9092C68.0815 26.877 68.4917 26.8856 68.8506 26.9276L69.0105 26.9464L69.2735 27.3728C69.4181 27.6074 69.6745 28.0198 69.8431 28.2892C70.6008 29.4993 70.7707 29.7728 71.2873 30.6142C72.0802 31.9053 72.3881 32.4152 72.4119 32.4766C72.4373 32.5421 72.2796 32.5745 71.9328 32.5751C71.4237 32.5759 71.3634 32.5229 70.746 31.5314L70.5688 31.2469L68.4187 31.2464L66.2686 31.2458L66.08 31.545C65.6949 32.1557 65.5009 32.4157 65.3776 32.4866C65.2738 32.5463 65.1917 32.5579 64.8756 32.5579C64.6678 32.5579 64.4865 32.5468 64.4727 32.5333C64.459 32.5198 64.4573 32.471 64.469 32.4249C64.5048 32.2844 67.5135 27.3973 67.7741 27.0565ZM72.9607 32.5754V29.7238V26.8721H73.439H73.9174V29.3214V31.7707H76.5219H79.1263V32.1731V32.5754H76.0435H72.9607ZM79.9413 32.5775V29.7238V26.8701L80.4109 26.8798L80.8804 26.8896V29.7238V32.5579L80.4109 32.5677L79.9413 32.5775ZM81.5359 27.6769V27.2745V26.8721H84.9731H88.4103V27.2745V27.6769H86.922H85.4338V30.1262V32.5754H84.9731H84.5125V30.1262V27.6769H83.0242H81.5359ZM89.0344 27.1903C89.0015 27.1633 88.926 27.0807 88.8666 27.0067L88.7587 26.8721L89.3729 26.8723L89.9872 26.8725L90.1998 27.1114C90.7662 27.7481 92.4577 29.6098 92.6525 29.8111L92.8729 30.0387L93.0965 29.8112C93.3462 29.5573 93.7851 29.0824 94.6333 28.1483C95.3621 27.3459 95.724 27.0042 95.9256 26.9284C96.049 26.882 96.178 26.8717 96.5375 26.8796L96.9931 26.8896L96.7501 27.1557C96.4501 27.4843 94.1813 29.9389 93.7135 30.441L93.3712 30.8083V31.6919V32.5754H92.8928H92.4145V31.7094V30.8433L91.9487 30.336C91.4365 29.7782 91.0404 29.3493 90.4469 28.7101C90.232 28.4786 89.8398 28.053 89.5752 27.7642C89.3107 27.4755 89.0673 27.2173 89.0344 27.1903ZM69.9124 30.1946C69.7977 29.9725 68.8946 28.493 68.659 28.1411C68.54 27.9634 68.4332 27.8177 68.4216 27.8174C68.3661 27.8159 68.1306 28.1661 67.5044 29.1814C67.0682 29.8888 66.8162 30.3337 66.8389 30.3561C66.9492 30.4651 69.7684 30.4636 69.9472 30.3545C69.9704 30.3403 69.9579 30.2825 69.9124 30.1946ZM95.6147 37.8764V41.9239H94.7233V36.9025C94.7233 36.725 94.7651 36.5855 94.8486 36.4841C94.937 36.3776 95.0548 36.3243 95.2022 36.3243C95.2709 36.3243 95.3372 36.3395 95.4011 36.37C95.4649 36.4004 95.5312 36.4511 95.6 36.5221L99.379 40.3947V36.3471H100.27V41.4142C100.27 41.5968 100.226 41.7388 100.138 41.8402C100.054 41.9417 99.9437 41.9924 99.8062 41.9924C99.654 41.9924 99.5116 41.9239 99.379 41.787L95.6147 37.8764ZM16.5067 41.9239V36.3928H21.2876V37.359H17.4349V40.9577H21.2949V41.9239H16.5067ZM18.12 39.5197V38.7057H21.0887V39.5197H18.12ZM27.3266 41.9239L25.9711 40.3871H23.9674V39.535H26.1995C26.5383 39.535 26.7937 39.4411 26.9656 39.2535C27.1375 39.0607 27.2234 38.7843 27.2234 38.4242C27.2234 38.0641 27.1326 37.7978 26.9509 37.6253C26.7741 37.4478 26.5236 37.359 26.1995 37.359H23.2823V41.9239H22.3542V36.3928H26.1995C26.504 36.3928 26.7765 36.441 27.0172 36.5373C27.2578 36.6287 27.4616 36.7631 27.6286 36.9406C27.7956 37.113 27.9232 37.3235 28.0116 37.5721C28.1 37.8206 28.1442 38.0996 28.1442 38.409C28.1442 38.8705 28.046 39.2585 27.8496 39.573C27.6581 39.8824 27.3879 40.1056 27.0393 40.2425L28.6525 41.9239H27.3266ZM29.3958 36.3928V41.9239H34.184V40.9577H30.324V37.359H34.1767V36.3928H29.3958ZM31.0091 38.7057V39.5197H33.9778V38.7057H31.0091ZM37.6889 41.9239C37.3157 41.9239 36.9695 41.8529 36.6503 41.7109C36.336 41.5638 36.0609 41.366 35.8252 41.1175C35.5944 40.8638 35.4127 40.5646 35.2801 40.2197C35.1524 39.8748 35.0886 39.502 35.0886 39.1013C35.0886 38.6955 35.1524 38.3253 35.2801 37.9905C35.4127 37.6558 35.5944 37.3717 35.8252 37.1384C36.0609 36.9 36.336 36.7174 36.6503 36.5906C36.9695 36.4587 37.3157 36.3928 37.6889 36.3928H40.5914V37.359H37.6889C37.4483 37.359 37.2249 37.4047 37.0186 37.496C36.8172 37.5822 36.6429 37.7039 36.4956 37.8612C36.3482 38.0184 36.2328 38.2061 36.1493 38.4242C36.0659 38.6423 36.0241 38.8832 36.0241 39.1469C36.0241 39.4056 36.0659 39.6465 36.1493 39.8697C36.2328 40.0929 36.3482 40.2856 36.4956 40.4479C36.6429 40.6052 36.8172 40.7294 37.0186 40.8207C37.2249 40.912 37.4483 40.9577 37.6889 40.9577H40.5914V41.9239H37.6889ZM43.3251 37.359V41.9239H44.2606V37.359H46.2938V36.3928H41.2919V37.359H43.3251ZM47.22 41.9239V36.3928H48.1555V41.9239H47.22ZM49.3901 36.3928V41.9239H53.9279V40.9577H50.3257V36.3928H49.3901ZM54.8563 41.9239V36.3928H59.6372V37.359H55.7845V40.9577H59.6446V41.9239H54.8563ZM56.4696 39.5197V38.7057H59.4383V39.5197H56.4696ZM63.127 36.3928V41.9239H66.2283C66.6064 41.9239 66.9551 41.8529 67.2743 41.7109C67.5935 41.5638 67.8685 41.366 68.0994 41.1175C68.3302 40.8638 68.5094 40.5646 68.6371 40.2197C68.7697 39.8748 68.836 39.502 68.836 39.1013C68.836 38.7006 68.7697 38.3354 68.6371 38.0057C68.5094 37.671 68.3302 37.3844 68.0994 37.146C67.8685 36.9076 67.5935 36.7225 67.2743 36.5906C66.9551 36.4587 66.6064 36.3928 66.2283 36.3928H63.127ZM66.8913 40.8207C66.6899 40.912 66.4689 40.9577 66.2283 40.9577H64.0551V37.359H66.2283C66.4689 37.359 66.6899 37.4047 66.8913 37.496C67.0975 37.5822 67.2743 37.7039 67.4217 37.8612C67.5739 38.0184 67.6917 38.2086 67.7752 38.4318C67.8587 38.6499 67.9005 38.8883 67.9005 39.1469C67.9005 39.4056 67.8587 39.6465 67.7752 39.8697C67.6917 40.0929 67.5739 40.2856 67.4217 40.4479C67.2743 40.6052 67.0975 40.7294 66.8913 40.8207ZM71.5575 41.9239V39.8241L68.714 36.3928H69.9737L72.0584 38.9415L74.1505 36.3928H75.3439L72.493 39.8241V41.9239H71.5575ZM75.7499 40.9577V41.9239H79.7647C80.0446 41.9239 80.2877 41.8833 80.4939 41.8022C80.7051 41.721 80.8794 41.6094 81.017 41.4674C81.1545 41.3203 81.2576 41.1479 81.3264 40.9501C81.3951 40.7523 81.4295 40.5367 81.4295 40.3034C81.4295 39.7657 81.2871 39.365 81.0022 39.1013C80.7223 38.8375 80.3098 38.7057 79.7647 38.7057H77.3116C77.1053 38.7057 76.9408 38.6473 76.818 38.5307C76.7002 38.414 76.6413 38.2492 76.6413 38.0362C76.6413 37.8231 76.7002 37.6583 76.818 37.5416C76.9359 37.4199 77.1029 37.359 77.319 37.359H81.1643V36.3928H77.319C77.0538 36.3928 76.818 36.4334 76.6118 36.5145C76.4055 36.5906 76.2312 36.6971 76.0888 36.8341C75.9512 36.971 75.8457 37.1359 75.772 37.3286C75.7032 37.5163 75.6689 37.7217 75.6689 37.9449C75.6689 38.1731 75.7057 38.3836 75.7794 38.5763C75.8579 38.7691 75.966 38.9365 76.1035 39.0785C76.2459 39.2154 76.4178 39.3245 76.6191 39.4056C76.8254 39.4817 77.0538 39.5197 77.3042 39.5197H79.7647C80.0151 39.5197 80.2066 39.5806 80.3392 39.7023C80.4768 39.819 80.5455 39.9965 80.5455 40.2349C80.5455 40.453 80.4768 40.628 80.3392 40.7599C80.2066 40.8917 80.0151 40.9577 79.7647 40.9577H75.7499ZM82.4894 41.9239V36.3928H87.0345V37.359H83.4176V41.9239H82.4894ZM84.1027 39.6339V38.7894H86.8135V39.6339H84.1027ZM93.6429 36.3928H92.7294V39.4817C92.7294 39.7607 92.6951 39.9991 92.6263 40.1969C92.5625 40.3947 92.4544 40.557 92.3022 40.6838C92.1548 40.8106 91.9559 40.9044 91.7055 40.9653C91.455 41.0211 91.1456 41.049 90.7773 41.049C90.409 41.049 90.0996 41.0211 89.8491 40.9653C89.5987 40.9044 89.3973 40.8106 89.2451 40.6838C89.0977 40.557 88.9897 40.3947 88.9209 40.1969C88.8571 39.9991 88.8252 39.7607 88.8252 39.4817V36.3928H87.8602V39.4817C87.8602 39.9078 87.9142 40.2806 88.0222 40.6001C88.1303 40.9146 88.2997 41.1758 88.5305 41.3837C88.7613 41.5917 89.0584 41.7464 89.4219 41.8478C89.7902 41.9493 90.2322 42 90.7478 42C91.2684 42 91.7104 41.9493 92.0738 41.8478C92.4421 41.7464 92.7417 41.5917 92.9725 41.3837C93.2033 41.1758 93.3728 40.9146 93.4808 40.6001C93.5889 40.2806 93.6429 39.9078 93.6429 39.4817V36.3928ZM102.842 41.7109C103.161 41.8529 103.507 41.9239 103.88 41.9239H106.783V40.9577H103.88C103.64 40.9577 103.416 40.912 103.21 40.8207C103.009 40.7294 102.834 40.6052 102.687 40.4479C102.54 40.2856 102.424 40.0929 102.341 39.8697C102.257 39.6465 102.215 39.4056 102.215 39.1469C102.215 38.8832 102.257 38.6423 102.341 38.4242C102.424 38.2061 102.54 38.0184 102.687 37.8612C102.834 37.7039 103.009 37.5822 103.21 37.496C103.416 37.4047 103.64 37.359 103.88 37.359H106.783V36.3928H103.88C103.507 36.3928 103.161 36.4587 102.842 36.5906C102.527 36.7174 102.252 36.9 102.017 37.1384C101.786 37.3717 101.604 37.6558 101.471 37.9905C101.344 38.3253 101.28 38.6955 101.28 39.1013C101.28 39.502 101.344 39.8748 101.471 40.2197C101.604 40.5646 101.786 40.8638 102.017 41.1175C102.252 41.366 102.527 41.5638 102.842 41.7109ZM109.516 41.9239V37.359H107.483V36.3928H112.485V37.359H110.452V41.9239H109.516ZM113.411 36.3928V41.9239H114.347V36.3928H113.411ZM118.027 41.9239C117.654 41.9239 117.308 41.8529 116.988 41.7109C116.674 41.5638 116.399 41.366 116.163 41.1175C115.933 40.8638 115.751 40.5646 115.618 40.2197C115.491 39.8748 115.427 39.502 115.427 39.1013C115.427 38.6955 115.491 38.3253 115.618 37.9905C115.751 37.6558 115.933 37.3717 116.163 37.1384C116.399 36.9 116.674 36.7174 116.988 36.5906C117.308 36.4587 117.654 36.3928 118.027 36.3928H119.331C119.719 36.3928 120.073 36.4587 120.392 36.5906C120.716 36.7225 120.993 36.9076 121.224 37.146C121.455 37.3844 121.634 37.671 121.762 38.0057C121.89 38.3354 121.953 38.7006 121.953 39.1013C121.953 39.502 121.887 39.8748 121.755 40.2197C121.627 40.5646 121.445 40.8638 121.209 41.1175C120.979 41.366 120.704 41.5638 120.384 41.7109C120.065 41.8529 119.714 41.9239 119.331 41.9239H118.027ZM119.331 40.9577C119.577 40.9577 119.802 40.912 120.009 40.8207C120.215 40.7294 120.392 40.6052 120.539 40.4479C120.691 40.2856 120.809 40.0929 120.893 39.8697C120.976 39.6465 121.018 39.4056 121.018 39.1469C121.018 38.8883 120.976 38.6499 120.893 38.4318C120.809 38.2086 120.691 38.0184 120.539 37.8612C120.392 37.7039 120.215 37.5822 120.009 37.496C119.802 37.4047 119.577 37.359 119.331 37.359H118.027C117.787 37.359 117.563 37.4047 117.357 37.496C117.155 37.5822 116.981 37.7039 116.834 37.8612C116.686 38.0184 116.571 38.2061 116.488 38.4242C116.404 38.6423 116.362 38.8832 116.362 39.1469C116.362 39.4056 116.404 39.6465 116.488 39.8697C116.571 40.0929 116.686 40.2856 116.834 40.4479C116.981 40.6052 117.155 40.7294 117.357 40.8207C117.563 40.912 117.787 40.9577 118.027 40.9577H119.331ZM123.838 41.9239V37.8764L127.602 41.787C127.735 41.9239 127.877 41.9924 128.029 41.9924C128.167 41.9924 128.277 41.9417 128.361 41.8402C128.449 41.7388 128.493 41.5968 128.493 41.4142V36.3471H127.602V40.3947L123.823 36.5221C123.754 36.4511 123.688 36.4004 123.624 36.37C123.56 36.3395 123.494 36.3243 123.425 36.3243C123.278 36.3243 123.16 36.3776 123.072 36.4841C122.988 36.5855 122.946 36.725 122.946 36.9025V41.9239H123.838Z" fill="white"/>
</svg>
