<svg width="134" height="132" viewBox="0 0 134 132" fill="none" xmlns="http://www.w3.org/2000/svg">
<g id="pills">
<g id="Group 924">
<g id="Ellipse 7" filter="url(#filter0_ii_2368_15902)">
<ellipse cx="68.6857" cy="65.6653" rx="50.6015" ry="50.1536" transform="rotate(20.0057 68.6857 65.6653)" fill="#B08645"/>
</g>
<g id="Ellipse 6">
<path d="M112.128 83.3878C102.678 109.345 73.7854 122.659 47.594 113.123C21.4025 103.588 7.83392 74.8138 17.2844 48.8569C26.7349 22.8999 55.6271 9.58542 81.8185 19.1213C108.01 28.6571 121.579 57.4309 112.128 83.3878Z" fill="#F4D494"/>
<path d="M112.128 83.3878C102.678 109.345 73.7854 122.659 47.594 113.123C21.4025 103.588 7.83392 74.8138 17.2844 48.8569C26.7349 22.8999 55.6271 9.58542 81.8185 19.1213C108.01 28.6571 121.579 57.4309 112.128 83.3878Z" fill="url(#paint0_radial_2368_15902)"/>
<path d="M112.128 83.3878C102.678 109.345 73.7854 122.659 47.594 113.123C21.4025 103.588 7.83392 74.8138 17.2844 48.8569C26.7349 22.8999 55.6271 9.58542 81.8185 19.1213C108.01 28.6571 121.579 57.4309 112.128 83.3878Z" stroke="#E8C787" stroke-width="0.26868"/>
</g>
</g>
<g id="Teya" opacity="0.3" filter="url(#filter1_ii_2368_15902)">
<path d="M41.3365 45.1928C40.879 45.0262 40.6431 44.5203 40.8097 44.0628C40.9763 43.6053 41.4822 43.3694 41.9397 43.536L54.928 48.2648C55.3855 48.4314 55.6214 48.9373 55.4548 49.3948C55.2882 49.8523 54.7823 50.0882 54.3248 49.9216L49.5943 48.1993C49.1295 48.0301 48.6156 48.2697 48.4464 48.7345L42.3088 65.592C42.1396 66.0567 41.6257 66.2964 41.1609 66.1271L40.9998 66.0685C40.535 65.8993 40.2954 65.3853 40.4646 64.9205L46.6022 48.063C46.7714 47.5983 46.5318 47.0843 46.067 46.9151L41.3365 45.1928Z" fill="#D1A44E"/>
<path d="M56.0026 71.8882C54.589 71.3735 53.4858 70.5995 52.6929 69.5662C51.9025 68.5264 51.4376 67.3184 51.2983 65.9422C51.1679 64.5619 51.3816 63.1058 51.9393 61.5739C52.4946 60.0486 53.2672 58.7959 54.2569 57.8159C55.2556 56.8318 56.3734 56.1851 57.6103 55.8759C58.8562 55.5626 60.1334 55.6441 61.4417 56.1205C62.2636 56.4197 63.0008 56.8593 63.6533 57.4394C64.3083 58.013 64.8257 58.7189 65.2055 59.5571C65.5944 60.3912 65.7963 61.3396 65.8115 62.4025C65.829 63.4588 65.6067 64.6214 65.1447 65.8903L65.1352 65.9166C64.966 66.3814 64.452 66.621 63.9872 66.4518L53.7685 62.7313C53.341 62.5756 53.1205 62.1028 53.2762 61.6753C53.4319 61.2477 53.9047 61.0273 54.3322 61.183L62.756 64.2499C63.2208 64.4192 63.7423 64.1804 63.8512 63.698C64.0032 63.0246 64.0398 62.3645 63.961 61.7176C63.8579 60.794 63.5405 59.9785 63.0088 59.2711C62.4836 58.5661 61.7674 58.0484 60.8601 57.7181C59.9002 57.3686 58.962 57.3174 58.0455 57.5646C57.129 57.8117 56.3104 58.2806 55.5898 58.9714C54.8758 59.6645 54.3336 60.5096 53.9631 61.5065L53.6256 62.4336C53.1876 63.6367 53.0117 64.7641 53.0979 65.8156C53.1932 66.863 53.5356 67.7732 54.1253 68.5464C54.715 69.3196 55.5359 69.8976 56.5878 70.2806C57.3045 70.5416 57.973 70.6584 58.5936 70.6311C59.2206 70.6063 59.7865 70.4735 60.2911 70.2328C60.5379 70.1151 60.7665 69.9813 60.9769 69.8315C61.3562 69.5613 61.8774 69.5098 62.2443 69.7968L62.3363 69.8688C62.7347 70.1804 62.7993 70.7669 62.4073 71.0865C62.0773 71.3555 61.7041 71.5903 61.2876 71.7907C60.5719 72.1407 59.763 72.3377 58.861 72.3816C57.9679 72.4213 57.0151 72.2568 56.0026 71.8882Z" fill="#D1A44E"/>
<path d="M64.8235 81.1758C64.4751 81.0489 64.1616 80.8976 63.8831 80.7217C63.8807 80.7202 63.8782 80.7186 63.8758 80.7171C63.4933 80.475 63.447 79.9709 63.7194 79.6095L63.7392 79.5831C64.0373 79.1876 64.5945 79.1218 65.034 79.3499C65.2971 79.4864 65.5541 79.585 65.8051 79.6456C66.2887 79.7695 66.7795 79.7099 67.2775 79.4668C67.7732 79.2303 68.3012 78.7822 68.8616 78.1224L69.7669 77.034C69.9007 76.8731 69.974 76.6704 69.9739 76.4612L69.9712 60.7398C69.9711 60.118 70.589 59.6854 71.1732 59.8981L71.2775 59.9361C71.635 60.0662 71.8713 60.408 71.8667 60.7884L71.7009 74.5477C71.7004 74.5917 71.7277 74.6312 71.7691 74.6463C71.8104 74.6613 71.8568 74.6486 71.8847 74.6146L80.6041 63.9696C80.8452 63.6752 81.2459 63.5654 81.6033 63.6955L81.7065 63.7331C82.291 63.9459 82.4859 64.6752 82.0854 65.1512L70.1119 79.3819C69.5767 80.0135 69.0232 80.5008 68.4516 80.8437C67.8776 81.1932 67.2878 81.3917 66.6822 81.4393C66.0808 81.4958 65.4613 81.408 64.8235 81.1758Z" fill="#D1A44E"/>
<path d="M84.4733 82.2874C83.5594 81.9546 82.7891 81.4731 82.1622 80.8428C81.5378 80.2059 81.1253 79.4675 80.9248 78.6275C80.7267 77.781 80.8047 76.8712 81.159 75.8981C81.4319 75.1486 81.8031 74.5689 82.2725 74.159C82.7419 73.7491 83.2962 73.4744 83.9352 73.3347C84.5743 73.1951 85.2836 73.1592 86.0631 73.2271C86.8426 73.2949 87.6788 73.4319 88.5718 73.6379C89.4583 73.8415 90.2084 74.0103 90.8223 74.1445C91.4427 74.281 91.9386 74.3201 92.3098 74.2616C92.6811 74.2032 92.9361 73.9833 93.075 73.602L93.2042 73.2469C93.58 72.2147 93.5666 71.2902 93.1641 70.4735C92.7704 69.6526 91.9984 69.0327 90.8478 68.6138C89.7564 68.2164 88.7781 68.132 87.9131 68.3607C87.374 68.5057 86.903 68.7137 86.5001 68.9847C86.1055 69.2501 85.5699 69.2942 85.2048 68.9894L85.1272 68.9247C84.7353 68.5976 84.6909 68.0019 85.0883 67.6814C85.5447 67.3134 86.0319 67.0393 86.5498 66.8591C87.3366 66.5796 88.1443 66.4679 88.9728 66.5238C89.8037 66.5731 90.6037 66.7378 91.373 67.0179C91.9515 67.2286 92.5256 67.5232 93.0951 67.9018C93.6712 68.2828 94.1606 68.7589 94.5633 69.3299C94.9684 69.8944 95.2177 70.5697 95.3113 71.3558C95.4072 72.1353 95.2708 73.0314 94.9022 74.0439L91.4636 83.4884C91.2944 83.9532 90.7804 84.1928 90.3157 84.0235L90.2433 83.9972C89.7786 83.828 89.539 83.314 89.7082 82.8493L90.2501 81.3607C90.2635 81.3241 90.2446 81.2835 90.2079 81.2702C90.1822 81.2608 90.1535 81.2672 90.1338 81.2862C89.7659 81.6435 89.3063 81.9532 88.755 82.2155C88.1876 82.4855 87.5425 82.6416 86.8197 82.6837C86.097 82.7259 85.3149 82.5938 84.4733 82.2874ZM85.2953 80.766C86.2289 81.1059 87.1129 81.1933 87.9475 81.028C88.7821 80.8628 89.5079 80.5053 90.1251 79.9556C90.7512 79.4017 91.215 78.7105 91.5166 77.8821L92.0419 76.4394C92.1444 76.1578 91.8304 75.7995 91.5309 75.7875C91.1926 75.776 90.8085 75.7367 90.3787 75.6695C89.9579 75.5982 89.5407 75.5171 89.1271 75.426C88.7134 75.335 88.3416 75.2518 88.0117 75.1763C87.1187 74.9703 86.3291 74.869 85.6428 74.8723C84.9565 74.8756 84.3805 75.0159 83.9147 75.2931C83.4514 75.5637 83.1084 76.0047 82.8857 76.6162C82.5506 77.5366 82.6196 78.3697 83.0928 79.1153C83.5683 79.8543 84.3025 80.4046 85.2953 80.766Z" fill="#D1A44E"/>
</g>
</g>
<defs>
<filter id="filter0_ii_2368_15902" x="17.1282" y="-43.6643" width="116.45" height="174.474" filterUnits="userSpaceOnUse" color-interpolation-filters="sRGB">
<feFlood flood-opacity="0" result="BackgroundImageFix"/>
<feBlend mode="normal" in="SourceGraphic" in2="BackgroundImageFix" result="shape"/>
<feColorMatrix in="SourceAlpha" type="matrix" values="0 0 0 0 0 0 0 0 0 0 0 0 0 0 0 0 0 0 127 0" result="hardAlpha"/>
<feOffset dx="-0.994831" dy="24.8708"/>
<feGaussianBlur stdDeviation="7.46123"/>
<feComposite in2="hardAlpha" operator="arithmetic" k2="-1" k3="1"/>
<feColorMatrix type="matrix" values="0 0 0 0 0.964706 0 0 0 0 0.866667 0 0 0 0 0.690196 0 0 0 1 0"/>
<feBlend mode="normal" in2="shape" result="effect1_innerShadow_2368_15902"/>
<feColorMatrix in="SourceAlpha" type="matrix" values="0 0 0 0 0 0 0 0 0 0 0 0 0 0 0 0 0 0 127 0" result="hardAlpha"/>
<feOffset dx="14.3296" dy="-59.1097"/>
<feGaussianBlur stdDeviation="33.1372"/>
<feComposite in2="hardAlpha" operator="arithmetic" k2="-1" k3="1"/>
<feColorMatrix type="matrix" values="0 0 0 0 0.839216 0 0 0 0 0.713726 0 0 0 0 0.466667 0 0 0 1 0"/>
<feBlend mode="normal" in2="effect1_innerShadow_2368_15902" result="effect2_innerShadow_2368_15902"/>
</filter>
<filter id="filter1_ii_2368_15902" x="40.4102" y="43.4844" width="55.4232" height="40.5938" filterUnits="userSpaceOnUse" color-interpolation-filters="sRGB">
<feFlood flood-opacity="0" result="BackgroundImageFix"/>
<feBlend mode="normal" in="SourceGraphic" in2="BackgroundImageFix" result="shape"/>
<feColorMatrix in="SourceAlpha" type="matrix" values="0 0 0 0 0 0 0 0 0 0 0 0 0 0 0 0 0 0 127 0" result="hardAlpha"/>
<feOffset dx="-0.492581"/>
<feComposite in2="hardAlpha" operator="arithmetic" k2="-1" k3="1"/>
<feColorMatrix type="matrix" values="0 0 0 0 1 0 0 0 0 0.956731 0 0 0 0 0.875 0 0 0 1 0"/>
<feBlend mode="normal" in2="shape" result="effect1_innerShadow_2368_15902"/>
<feColorMatrix in="SourceAlpha" type="matrix" values="0 0 0 0 0 0 0 0 0 0 0 0 0 0 0 0 0 0 127 0" result="hardAlpha"/>
<feOffset dx="0.492581"/>
<feGaussianBlur stdDeviation="0.4478"/>
<feComposite in2="hardAlpha" operator="arithmetic" k2="-1" k3="1"/>
<feColorMatrix type="matrix" values="0 0 0 0 0 0 0 0 0 0 0 0 0 0 0 0 0 0 0.25 0"/>
<feBlend mode="normal" in2="effect1_innerShadow_2368_15902" result="effect2_innerShadow_2368_15902"/>
</filter>
<radialGradient id="paint0_radial_2368_15902" cx="0" cy="0" r="1" gradientUnits="userSpaceOnUse" gradientTransform="translate(38.326 20.776) rotate(58.9662) scale(186.588 188.254)">
<stop offset="0.286475" stop-color="#F6DEB0" stop-opacity="0.68"/>
<stop offset="1" stop-color="#A48A56"/>
<stop offset="1" stop-color="#A48A56" stop-opacity="0.53"/>
</radialGradient>
</defs>
</svg>
