<svg width="155" height="174" viewBox="0 0 155 174" fill="none" xmlns="http://www.w3.org/2000/svg">
<g id="pills">
<g id="Group 985">
<g id="Group 986">
<g id="Polygon 3" filter="url(#filter0_ii_2519_4872)">
<path d="M134.855 160.244C123.349 160.757 117.597 161.013 112.603 159.207C109.128 157.951 105.953 155.988 103.276 153.44C99.4292 149.78 95.823 144.942 91.141 134.42C87.5735 126.403 86.4532 124.602 87.7887 118.683C88.2911 116.432 89.5394 114.413 91.329 112.957C93.9426 110.832 98.3258 110.636 107.092 110.245C118.598 109.732 124.35 109.476 129.344 111.282C132.819 112.538 135.994 114.501 138.671 117.049C142.518 120.709 144.859 125.97 149.541 136.492C153.108 144.509 154.669 149.864 153.792 153.962C153.29 156.213 152.407 156.076 150.618 157.532C148.004 159.657 143.621 159.853 134.855 160.244Z" fill="#455A87"/>
</g>
<g id="Polygon 2">
<g filter="url(#filter1_ii_2519_4872)">
<path d="M134.467 162.896C122.991 163.362 117.252 163.595 112.264 161.781C108.792 160.519 105.617 158.556 102.937 156.015C99.0849 152.362 96.7294 147.124 92.0185 136.649C88.4289 128.668 86.6341 124.677 87.3537 121.412C87.8464 119.176 89.0841 117.174 90.864 115.735C93.4634 113.632 97.8356 113.454 106.58 113.099C118.056 112.633 123.794 112.4 128.783 114.214C132.255 115.476 135.43 117.439 138.11 119.98C141.962 123.633 144.317 128.871 149.028 139.346C152.618 147.327 154.413 151.318 153.693 154.583C153.2 156.819 151.963 158.821 150.183 160.26C147.583 162.363 143.211 162.541 134.467 162.896Z" fill="#709CC9"/>
</g>
<path d="M134.446 162.384C122.925 162.852 117.31 163.071 112.439 161.3C109.033 160.062 105.919 158.136 103.29 155.643C99.5287 152.076 97.2154 146.955 92.486 136.439C90.6868 132.438 89.3536 129.472 88.5561 127.098C87.7593 124.727 87.5244 123.019 87.8543 121.522C88.322 119.4 89.4969 117.5 91.1864 116.133C92.3783 115.169 94.0107 114.616 96.4887 114.269C98.9687 113.922 102.218 113.789 106.601 113.611C118.122 113.143 123.737 112.924 128.608 114.695C132.014 115.933 135.128 117.859 137.757 120.352C141.518 123.919 143.831 129.04 148.561 139.556C150.36 143.557 151.693 146.523 152.491 148.897C153.288 151.268 153.522 152.976 153.193 154.473C152.725 156.595 151.55 158.495 149.86 159.862C148.669 160.826 147.036 161.379 144.558 161.726C142.078 162.073 138.829 162.206 134.446 162.384Z" stroke="#6080A0" stroke-width="1.02532"/>
</g>
</g>
<g id="100" filter="url(#filter2_ii_2519_4872)">
<path d="M114.546 129.317C114.81 129.47 114.899 129.808 114.745 130.071L110.531 137.306C110.378 137.569 110.04 137.658 109.777 137.505L109.739 137.482C109.476 137.329 109.386 136.991 109.54 136.728L113.405 130.093C113.416 130.073 113.409 130.047 113.389 130.035C113.382 130.031 113.374 130.029 113.365 130.029L111.51 130.138C111.123 130.161 110.867 129.744 111.062 129.409C111.144 129.269 111.29 129.178 111.453 129.169L113.865 129.027C113.974 129.021 114.081 129.046 114.175 129.101L114.546 129.317Z" fill="#608AB6"/>
<path d="M116.846 141.772C116.244 141.421 115.826 140.958 115.593 140.384C115.362 139.806 115.317 139.139 115.458 138.383C115.6 137.623 115.931 136.799 116.449 135.908C116.965 135.024 117.517 134.333 118.106 133.837C118.699 133.34 119.303 133.05 119.919 132.966C120.54 132.882 121.149 133.013 121.746 133.361C122.343 133.709 122.756 134.172 122.986 134.752C123.22 135.331 123.265 136 123.123 136.76C122.985 137.518 122.658 138.34 122.142 139.224C121.624 140.115 121.069 140.809 120.479 141.308C119.89 141.803 119.288 142.093 118.672 142.177C118.057 142.258 117.448 142.123 116.846 141.772ZM117.358 140.893C117.955 141.24 118.587 141.223 119.253 140.839C119.918 140.456 120.562 139.732 121.183 138.666C121.596 137.957 121.871 137.309 122.01 136.722C122.151 136.137 122.156 135.631 122.026 135.205C121.898 134.781 121.637 134.454 121.243 134.224C120.651 133.88 120.019 133.902 119.345 134.292C118.674 134.679 118.028 135.404 117.409 136.467C116.996 137.176 116.72 137.822 116.58 138.405C116.441 138.987 116.436 139.489 116.565 139.911C116.697 140.334 116.961 140.661 117.358 140.893Z" fill="#608AB6"/>
<path d="M125.514 146.821C124.912 146.471 124.495 146.008 124.262 145.433C124.03 144.856 123.985 144.189 124.126 143.432C124.269 142.673 124.599 141.848 125.118 140.958C125.633 140.073 126.185 139.383 126.774 138.887C127.367 138.39 127.972 138.099 128.588 138.016C129.208 137.931 129.817 138.062 130.414 138.41C131.011 138.758 131.424 139.222 131.654 139.802C131.888 140.381 131.934 141.05 131.791 141.809C131.653 142.568 131.326 143.389 130.811 144.274C130.292 145.164 129.738 145.858 129.147 146.357C128.559 146.853 127.956 147.143 127.34 147.226C126.725 147.307 126.117 147.172 125.514 146.821ZM126.027 145.942C126.624 146.29 127.255 146.272 127.921 145.889C128.587 145.506 129.23 144.781 129.851 143.715C130.264 143.006 130.54 142.358 130.678 141.771C130.819 141.186 130.825 140.68 130.694 140.255C130.567 139.83 130.305 139.503 129.911 139.274C129.319 138.929 128.687 138.952 128.014 139.341C127.342 139.728 126.697 140.453 126.077 141.517C125.664 142.226 125.388 142.871 125.249 143.454C125.109 144.037 125.104 144.539 125.233 144.96C125.365 145.383 125.63 145.711 126.027 145.942Z" fill="#608AB6"/>
</g>
</g>
<g id="Group 983">
<g id="Group 987">
<g id="Polygon 3_2" filter="url(#filter3_ii_2519_4872)">
<path d="M71.0359 90.8575C67.7259 101.888 66.0708 107.404 62.719 111.522C60.3866 114.388 57.4864 116.738 54.1989 118.425C49.4744 120.85 44.3778 122.717 32.9004 123.667C24.1551 124.391 21.0343 124.471 16.2783 121.584C14.3187 120.367 12.8244 118.523 12.0406 116.353C10.8958 113.185 12.1569 108.982 14.679 100.577C17.989 89.5465 19.6441 84.0311 22.9959 79.9124C25.3283 77.0463 28.2285 74.6966 31.516 73.0094C36.2405 70.5848 41.9792 70.1098 53.4566 69.1598C62.2019 68.436 66.5745 68.0741 69.4366 69.8511C71.3962 71.0679 72.8905 72.9122 73.6743 75.0817C74.8191 78.2501 73.558 82.4526 71.0359 90.8575Z" fill="#455A87"/>
</g>
<g id="Polygon 2_2">
<g filter="url(#filter4_ii_2519_4872)">
<path d="M73.4641 91.9958C70.1194 102.984 68.447 108.478 65.0894 112.589C62.7529 115.45 59.8527 117.8 56.5692 119.492C51.8506 121.924 46.1292 122.42 34.6865 123.413C25.9676 124.17 21.6081 124.548 18.7631 122.792C16.815 121.589 15.3334 119.761 14.5613 117.606C13.4335 114.458 14.7078 110.272 17.2563 101.9C20.601 90.9116 22.2733 85.4176 25.6309 81.3061C27.9674 78.445 30.8676 76.0953 34.1511 74.4031C38.8697 71.9713 44.5911 71.475 56.0339 70.4822C64.7528 69.7258 69.1122 69.3476 71.9573 71.1036C73.9053 72.306 75.3869 74.1347 76.1591 76.2898C77.2868 79.4373 76.0126 83.6234 73.4641 91.9958Z" fill="#709CC9"/>
</g>
<path d="M72.9736 91.8465C69.6159 102.877 67.9706 108.251 64.6923 112.265C62.4003 115.072 59.5554 117.377 56.3344 119.037C51.7272 121.411 46.1297 121.906 34.6422 122.902C30.272 123.282 27.0323 123.562 24.5282 123.532C22.0262 123.502 20.3369 123.161 19.0323 122.356C17.1832 121.214 15.7768 119.478 15.0439 117.433C14.5267 115.989 14.5433 114.266 15.0329 111.812C15.5229 109.356 16.4693 106.245 17.7467 102.049C21.1045 91.018 22.7497 85.6448 26.028 81.6304C28.32 78.8237 31.165 76.5188 34.386 74.8588C38.9931 72.4845 44.5907 71.9896 56.0782 70.993C60.4483 70.6138 63.6881 70.3333 66.1921 70.3634C68.6941 70.3934 70.3834 70.7347 71.688 71.5399C73.5371 72.6812 74.9435 74.4171 75.6765 76.4627C76.1936 77.906 76.1771 79.6293 75.6874 82.0832C75.1974 84.539 74.251 87.6501 72.9736 91.8465Z" stroke="#6080A0" stroke-width="1.02532"/>
</g>
</g>
<g id="101" filter="url(#filter5_ii_2519_4872)">
<path d="M37.2199 99.8657C37.4675 99.6884 37.8119 99.7454 37.9892 99.993L42.8633 106.8C43.0406 107.048 42.9836 107.392 42.736 107.57L42.6996 107.596C42.4521 107.773 42.1077 107.716 41.9304 107.468L37.4604 101.225C37.4467 101.206 37.4201 101.202 37.4009 101.216C37.3941 101.22 37.3889 101.227 37.3859 101.235L36.7255 102.972C36.5878 103.334 36.1023 103.397 35.8767 103.082C35.782 102.95 35.7598 102.779 35.8176 102.627L36.6762 100.368C36.7147 100.267 36.7824 100.179 36.8706 100.116L37.2199 99.8657Z" fill="#608AB6"/>
<path d="M49.5242 102.869C48.9574 103.275 48.3642 103.466 47.7446 103.443C47.1232 103.418 46.4962 103.186 45.8636 102.747C45.2292 102.306 44.6121 101.667 44.0124 100.829C43.4163 99.9965 43.0125 99.2101 42.8012 98.4699C42.5906 97.7254 42.5734 97.055 42.7495 96.4585C42.9263 95.8577 43.2956 95.3562 43.8573 94.954C44.4191 94.5518 45.0115 94.3647 45.6347 94.3927C46.2586 94.4163 46.8878 94.6487 47.5222 95.0897C48.1573 95.5264 48.773 96.1611 49.3691 96.9937C49.9688 97.8313 50.3753 98.6214 50.5884 99.3641C50.7997 100.104 50.8173 100.773 50.6412 101.369C50.4633 101.963 50.091 102.463 49.5242 102.869ZM48.9316 102.041C49.4934 101.639 49.7358 101.056 49.659 100.291C49.5821 99.527 49.1845 98.6432 48.4663 97.6401C47.9887 96.973 47.5105 96.4562 47.0318 96.0895C46.5556 95.7211 46.0966 95.5092 45.6548 95.4538C45.2155 95.3965 44.8102 95.5008 44.4391 95.7666C43.8823 96.1652 43.6439 96.7513 43.7236 97.525C43.8016 98.2961 44.1988 99.182 44.9152 100.183C45.3928 100.85 45.8689 101.366 46.3433 101.732C46.8177 102.098 47.2736 102.308 47.7111 102.363C48.1511 102.416 48.558 102.309 48.9316 102.041Z" fill="#608AB6"/>
<path d="M57.6809 97.0286C57.1141 97.4344 56.5209 97.6258 55.9013 97.6029C55.2799 97.5774 54.6529 97.3454 54.0203 96.9069C53.3858 96.4659 52.7688 95.8266 52.1691 94.9889C51.5729 94.1563 51.1692 93.37 50.9579 92.6298C50.7473 91.8853 50.73 91.2148 50.9061 90.6184C51.0829 90.0176 51.4522 89.5161 52.014 89.1139C52.5757 88.7117 53.1682 88.5246 53.7914 88.5526C54.4153 88.5762 55.0445 88.8086 55.6789 89.2496C56.314 89.6863 56.9296 90.321 57.5258 91.1536C58.1255 91.9912 58.5319 92.7813 58.745 93.524C58.9563 94.2642 58.9739 94.9325 58.7978 95.529C58.6199 96.1229 58.2476 96.6228 57.6809 97.0286ZM57.0883 96.201C57.6501 95.7988 57.8925 95.2155 57.8156 94.4512C57.7387 93.6868 57.3412 92.8031 56.623 91.8C56.1453 91.1329 55.6672 90.616 55.1884 90.2494C54.7122 89.881 54.2532 89.6691 53.8114 89.6137C53.3721 89.5564 52.9669 89.6607 52.5957 89.9264C52.039 90.3251 51.8005 90.9112 51.8803 91.6849C51.9582 92.456 52.3554 93.3419 53.0719 94.3425C53.5495 95.0096 54.0255 95.5261 54.4999 95.892C54.9744 96.2579 55.4303 96.4682 55.8678 96.5229C56.3078 96.5759 56.7146 96.4686 57.0883 96.201Z" fill="#608AB6"/>
</g>
</g>
<g id="Group 984">
<g id="Group 988">
<g id="Polygon 3_3" filter="url(#filter6_ii_2519_4872)">
<path d="M107.788 59.3186C96.3068 58.4145 90.5663 57.9624 85.8322 55.5568C82.5379 53.8827 79.6283 51.5446 77.2845 48.6879C73.9163 44.5826 70.9375 39.2181 67.5834 28.2007C65.0277 19.8059 64.3623 17.6586 66.1837 12.2913C66.9588 10.1187 68.4457 8.26842 70.4005 7.04383C73.2554 5.25534 77.6295 5.59979 86.3776 6.28868C97.8587 7.19279 103.599 7.64485 108.333 10.0505C111.628 11.7246 114.537 14.0627 116.881 16.9194C120.249 21.0247 121.926 26.5334 125.28 37.5509C127.836 45.9456 128.452 50.9917 127.982 53.316C127.433 56.0301 126.363 59.0926 124.408 60.3172C121.553 62.1057 116.536 60.0075 107.788 59.3186Z" fill="#455A87"/>
</g>
<g id="Polygon 2_3">
<g filter="url(#filter7_ii_2519_4872)">
<path d="M107.188 61.9261C95.7418 60.9791 90.0185 60.5056 85.2902 58.0927C82 56.4137 79.0904 54.0756 76.7426 51.2238C73.3685 47.1257 71.6742 41.6385 68.2857 30.6639C65.7037 22.3018 64.4127 18.1208 65.5279 14.9689C66.2915 12.8107 67.7657 10.9761 69.7089 9.76593C72.547 7.99849 76.9079 8.35928 85.6297 9.08086C97.0764 10.0279 102.8 10.5014 107.528 12.9143C110.818 14.5933 113.728 16.9314 116.076 19.7831C119.45 23.8813 121.144 29.3685 124.533 40.343C127.115 48.7051 128.405 52.8862 127.29 56.0381C126.527 58.1963 125.052 60.0309 123.109 61.241C120.271 63.0085 115.91 62.6477 107.188 61.9261Z" fill="#709CC9"/>
</g>
<path d="M107.231 61.4152C95.7394 60.4645 90.1399 59.992 85.5233 57.6361C82.2957 55.989 79.4415 53.6954 77.1383 50.898C73.844 46.8967 72.1773 41.5301 68.7755 30.5127C67.4813 26.3214 66.5225 23.2141 66.0227 20.7603C65.5233 18.3084 65.4998 16.5851 66.0112 15.1398C66.736 13.0913 68.1354 11.3498 69.98 10.2011C71.2813 9.39065 72.9692 9.04261 75.4711 9.00261C77.975 8.96257 81.2158 9.2301 85.5875 9.59178C97.0789 10.5425 102.678 11.015 107.295 13.3709C110.523 15.018 113.377 17.3116 115.68 20.109C118.974 24.1103 120.641 29.4769 124.043 40.4943C125.337 44.6856 126.296 47.7929 126.796 50.2467C127.295 52.6986 127.318 54.4218 126.807 55.8671C126.082 57.9157 124.683 59.6572 122.838 60.8059C121.537 61.6163 119.849 61.9644 117.347 62.0044C114.843 62.0444 111.602 61.7769 107.231 61.4152Z" stroke="#6080A0" stroke-width="1.02532"/>
</g>
</g>
<g id="102" filter="url(#filter8_ii_2519_4872)">
<path d="M91.9731 25.0976C92.2118 25.2868 92.2519 25.6335 92.0627 25.8721L86.8616 32.4332C86.6725 32.6718 86.3257 32.7119 86.0871 32.5228L86.052 32.495C85.8134 32.3059 85.7733 31.9591 85.9625 31.7205L90.7323 25.7034C90.7469 25.6849 90.7438 25.6581 90.7254 25.6435C90.7188 25.6383 90.7108 25.6351 90.7025 25.6344L88.8505 25.4782C88.4644 25.4457 88.2701 24.9963 88.5108 24.6926C88.6118 24.5651 88.77 24.4967 88.9321 24.5104L91.3402 24.7134C91.4484 24.7225 91.5514 24.7633 91.6364 24.8307L91.9731 25.0976Z" fill="#608AB6"/>
<path d="M92.4764 37.753C91.9302 37.32 91.5827 36.8025 91.4341 36.2006C91.2873 35.5962 91.3376 34.9295 91.5848 34.2006C91.834 33.4692 92.2785 32.6999 92.9185 31.8926C93.5546 31.0901 94.1993 30.4854 94.8526 30.0783C95.5103 29.6707 96.15 29.4694 96.7719 29.4744C97.3982 29.4788 97.982 29.6956 98.5234 30.1248C99.0648 30.554 99.408 31.072 99.5528 31.6788C99.7019 32.285 99.6519 32.9539 99.4027 33.6852C99.1579 34.4161 98.7175 35.1828 98.0813 35.9852C97.4414 36.7925 96.7938 37.4009 96.1386 37.8104C95.4853 38.2174 94.8477 38.4185 94.2258 38.4136C93.6058 38.4062 93.0227 38.186 92.4764 37.753ZM93.1087 36.9554C93.6501 37.3846 94.2776 37.4569 94.9912 37.1724C95.7048 36.8879 96.4448 36.2623 97.2112 35.2955C97.7209 34.6525 98.0859 34.0505 98.3065 33.4892C98.5294 32.93 98.6067 32.4303 98.5382 31.9904C98.4722 31.5523 98.2603 31.1915 97.9026 30.9079C97.366 30.4826 96.7369 30.4148 96.0151 30.7046C95.2953 30.992 94.5531 31.6179 93.7886 32.5824C93.279 33.2253 92.9136 33.8252 92.6926 34.3821C92.4716 34.9389 92.395 35.4352 92.463 35.8708C92.5333 36.3084 92.7486 36.6699 93.1087 36.9554Z" fill="#608AB6"/>
<path d="M100.338 43.9849C99.7916 43.5519 99.4441 43.0344 99.2955 42.4324C99.1488 41.8281 99.199 41.1614 99.4463 40.4324C99.6954 39.7011 100.14 38.9317 100.78 38.1244C101.416 37.322 102.061 36.7172 102.714 36.3102C103.372 35.9026 104.011 35.7013 104.633 35.7062C105.26 35.7107 105.843 35.9275 106.385 36.3567C106.926 36.7859 107.269 37.3038 107.414 37.9106C107.563 38.5169 107.513 39.1857 107.264 39.9171C107.019 40.648 106.579 41.4146 105.943 42.2171C105.303 43.0244 104.655 43.6328 104 44.0423C103.347 44.4493 102.709 44.6504 102.087 44.6454C101.467 44.6381 100.884 44.4179 100.338 43.9849ZM100.97 43.1873C101.512 43.6164 102.139 43.6888 102.853 43.4043C103.566 43.1198 104.306 42.4941 105.073 41.5273C105.582 40.8844 105.947 40.2823 106.168 39.7211C106.391 39.1618 106.468 38.6622 106.4 38.2222C106.334 37.7842 106.122 37.4234 105.764 37.1398C105.227 36.7144 104.598 36.6467 103.877 36.9365C103.157 37.2239 102.415 37.8498 101.65 38.8142C101.14 39.4572 100.775 40.0571 100.554 40.6139C100.333 41.1708 100.256 41.667 100.324 42.1027C100.395 42.5402 100.61 42.9018 100.97 43.1873Z" fill="#608AB6"/>
</g>
</g>
</g>
<defs>
<filter id="filter0_ii_2519_4872" x="87.2439" y="100.639" width="71.914" height="68.1844" filterUnits="userSpaceOnUse" color-interpolation-filters="sRGB">
<feFlood flood-opacity="0" result="BackgroundImageFix"/>
<feBlend mode="normal" in="SourceGraphic" in2="BackgroundImageFix" result="shape"/>
<feColorMatrix in="SourceAlpha" type="matrix" values="0 0 0 0 0 0 0 0 0 0 0 0 0 0 0 0 0 0 127 0" result="hardAlpha"/>
<feOffset dy="-12.3039"/>
<feGaussianBlur stdDeviation="4.61395"/>
<feComposite in2="hardAlpha" operator="arithmetic" k2="-1" k3="1"/>
<feColorMatrix type="matrix" values="0 0 0 0 0.533333 0 0 0 0 0.654902 0 0 0 0 0.784314 0 0 0 1 0"/>
<feBlend mode="normal" in2="shape" result="effect1_innerShadow_2519_4872"/>
<feColorMatrix in="SourceAlpha" type="matrix" values="0 0 0 0 0 0 0 0 0 0 0 0 0 0 0 0 0 0 127 0" result="hardAlpha"/>
<feOffset dx="5.12661" dy="8.20258"/>
<feGaussianBlur stdDeviation="8.71524"/>
<feComposite in2="hardAlpha" operator="arithmetic" k2="-1" k3="1"/>
<feColorMatrix type="matrix" values="0 0 0 0 0 0 0 0 0 0 0 0 0 0 0 0 0 0 0.25 0"/>
<feBlend mode="normal" in2="effect1_innerShadow_2519_4872" result="effect2_innerShadow_2519_4872"/>
</filter>
<filter id="filter1_ii_2519_4872" x="82.0704" y="104.565" width="94.9356" height="70.791" filterUnits="userSpaceOnUse" color-interpolation-filters="sRGB">
<feFlood flood-opacity="0" result="BackgroundImageFix"/>
<feBlend mode="normal" in="SourceGraphic" in2="BackgroundImageFix" result="shape"/>
<feColorMatrix in="SourceAlpha" type="matrix" values="0 0 0 0 0 0 0 0 0 0 0 0 0 0 0 0 0 0 127 0" result="hardAlpha"/>
<feOffset dx="28.6695" dy="12.1294"/>
<feGaussianBlur stdDeviation="11.5781"/>
<feComposite in2="hardAlpha" operator="arithmetic" k2="-1" k3="1"/>
<feColorMatrix type="matrix" values="0 0 0 0 0.533333 0 0 0 0 0.654902 0 0 0 0 0.784314 0 0 0 1 0"/>
<feBlend mode="normal" in2="shape" result="effect1_innerShadow_2519_4872"/>
<feColorMatrix in="SourceAlpha" type="matrix" values="0 0 0 0 0 0 0 0 0 0 0 0 0 0 0 0 0 0 127 0" result="hardAlpha"/>
<feOffset dx="-5.12661" dy="-8.20258"/>
<feGaussianBlur stdDeviation="8.71524"/>
<feComposite in2="hardAlpha" operator="arithmetic" k2="-1" k3="1"/>
<feColorMatrix type="matrix" values="0 0 0 0 0.0416146 0 0 0 0 0.0570362 0 0 0 0 0.195833 0 0 0 0.25 0"/>
<feBlend mode="normal" in2="effect1_innerShadow_2519_4872" result="effect2_innerShadow_2519_4872"/>
</filter>
<filter id="filter2_ii_2519_4872" x="108.913" y="129.025" width="23.5101" height="18.2246" filterUnits="userSpaceOnUse" color-interpolation-filters="sRGB">
<feFlood flood-opacity="0" result="BackgroundImageFix"/>
<feBlend mode="normal" in="SourceGraphic" in2="BackgroundImageFix" result="shape"/>
<feColorMatrix in="SourceAlpha" type="matrix" values="0 0 0 0 0 0 0 0 0 0 0 0 0 0 0 0 0 0 127 0" result="hardAlpha"/>
<feOffset dx="-0.551336"/>
<feGaussianBlur stdDeviation="0.275668"/>
<feComposite in2="hardAlpha" operator="arithmetic" k2="-1" k3="1"/>
<feColorMatrix type="matrix" values="0 0 0 0 0.468733 0 0 0 0 0.655116 0 0 0 0 0.845833 0 0 0 1 0"/>
<feBlend mode="normal" in2="shape" result="effect1_innerShadow_2519_4872"/>
<feColorMatrix in="SourceAlpha" type="matrix" values="0 0 0 0 0 0 0 0 0 0 0 0 0 0 0 0 0 0 127 0" result="hardAlpha"/>
<feOffset dx="0.551336"/>
<feGaussianBlur stdDeviation="0.551336"/>
<feComposite in2="hardAlpha" operator="arithmetic" k2="-1" k3="1"/>
<feColorMatrix type="matrix" values="0 0 0 0 0 0 0 0 0 0 0 0 0 0 0 0 0 0 0.25 0"/>
<feBlend mode="normal" in2="effect1_innerShadow_2519_4872" result="effect2_innerShadow_2519_4872"/>
</filter>
<filter id="filter3_ii_2519_4872" x="10.5044" y="68.5645" width="68.722" height="72.1893" filterUnits="userSpaceOnUse" color-interpolation-filters="sRGB">
<feFlood flood-opacity="0" result="BackgroundImageFix"/>
<feBlend mode="normal" in="SourceGraphic" in2="BackgroundImageFix" result="shape"/>
<feColorMatrix in="SourceAlpha" type="matrix" values="0 0 0 0 0 0 0 0 0 0 0 0 0 0 0 0 0 0 127 0" result="hardAlpha"/>
<feOffset dx="-1.1108" dy="27.7699"/>
<feGaussianBlur stdDeviation="8.33098"/>
<feComposite in2="hardAlpha" operator="arithmetic" k2="-1" k3="1"/>
<feColorMatrix type="matrix" values="0 0 0 0 0.533333 0 0 0 0 0.654902 0 0 0 0 0.784314 0 0 0 1 0"/>
<feBlend mode="normal" in2="shape" result="effect1_innerShadow_2519_4872"/>
<feColorMatrix in="SourceAlpha" type="matrix" values="0 0 0 0 0 0 0 0 0 0 0 0 0 0 0 0 0 0 127 0" result="hardAlpha"/>
<feOffset dx="5.12661" dy="8.20258"/>
<feGaussianBlur stdDeviation="8.71524"/>
<feComposite in2="hardAlpha" operator="arithmetic" k2="-1" k3="1"/>
<feColorMatrix type="matrix" values="0 0 0 0 0 0 0 0 0 0 0 0 0 0 0 0 0 0 0.25 0"/>
<feBlend mode="normal" in2="effect1_innerShadow_2519_4872" result="effect2_innerShadow_2519_4872"/>
</filter>
<filter id="filter4_ii_2519_4872" x="9.02158" y="61.6451" width="90.7066" height="74.5312" filterUnits="userSpaceOnUse" color-interpolation-filters="sRGB">
<feFlood flood-opacity="0" result="BackgroundImageFix"/>
<feBlend mode="normal" in="SourceGraphic" in2="BackgroundImageFix" result="shape"/>
<feColorMatrix in="SourceAlpha" type="matrix" values="0 0 0 0 0 0 0 0 0 0 0 0 0 0 0 0 0 0 127 0" result="hardAlpha"/>
<feOffset dx="28.6695" dy="12.1294"/>
<feGaussianBlur stdDeviation="11.5781"/>
<feComposite in2="hardAlpha" operator="arithmetic" k2="-1" k3="1"/>
<feColorMatrix type="matrix" values="0 0 0 0 0.533333 0 0 0 0 0.654902 0 0 0 0 0.784314 0 0 0 1 0"/>
<feBlend mode="normal" in2="shape" result="effect1_innerShadow_2519_4872"/>
<feColorMatrix in="SourceAlpha" type="matrix" values="0 0 0 0 0 0 0 0 0 0 0 0 0 0 0 0 0 0 127 0" result="hardAlpha"/>
<feOffset dx="-5.12661" dy="-8.20258"/>
<feGaussianBlur stdDeviation="8.71524"/>
<feComposite in2="hardAlpha" operator="arithmetic" k2="-1" k3="1"/>
<feColorMatrix type="matrix" values="0 0 0 0 0.0416146 0 0 0 0 0.0570362 0 0 0 0 0.195833 0 0 0 0.25 0"/>
<feBlend mode="normal" in2="effect1_innerShadow_2519_4872" result="effect2_innerShadow_2519_4872"/>
</filter>
<filter id="filter5_ii_2519_4872" x="35.2346" y="88.5508" width="24.2348" height="19.1484" filterUnits="userSpaceOnUse" color-interpolation-filters="sRGB">
<feFlood flood-opacity="0" result="BackgroundImageFix"/>
<feBlend mode="normal" in="SourceGraphic" in2="BackgroundImageFix" result="shape"/>
<feColorMatrix in="SourceAlpha" type="matrix" values="0 0 0 0 0 0 0 0 0 0 0 0 0 0 0 0 0 0 127 0" result="hardAlpha"/>
<feOffset dx="-0.551336"/>
<feGaussianBlur stdDeviation="0.275668"/>
<feComposite in2="hardAlpha" operator="arithmetic" k2="-1" k3="1"/>
<feColorMatrix type="matrix" values="0 0 0 0 0.468733 0 0 0 0 0.655116 0 0 0 0 0.845833 0 0 0 1 0"/>
<feBlend mode="normal" in2="shape" result="effect1_innerShadow_2519_4872"/>
<feColorMatrix in="SourceAlpha" type="matrix" values="0 0 0 0 0 0 0 0 0 0 0 0 0 0 0 0 0 0 127 0" result="hardAlpha"/>
<feOffset dx="0.551336"/>
<feGaussianBlur stdDeviation="0.551336"/>
<feComposite in2="hardAlpha" operator="arithmetic" k2="-1" k3="1"/>
<feColorMatrix type="matrix" values="0 0 0 0 0 0 0 0 0 0 0 0 0 0 0 0 0 0 0.25 0"/>
<feBlend mode="normal" in2="effect1_innerShadow_2519_4872" result="effect2_innerShadow_2519_4872"/>
</filter>
<filter id="filter6_ii_2519_4872" x="65.1516" y="-3.49744" width="68.1017" height="72.7215" filterUnits="userSpaceOnUse" color-interpolation-filters="sRGB">
<feFlood flood-opacity="0" result="BackgroundImageFix"/>
<feBlend mode="normal" in="SourceGraphic" in2="BackgroundImageFix" result="shape"/>
<feColorMatrix in="SourceAlpha" type="matrix" values="0 0 0 0 0 0 0 0 0 0 0 0 0 0 0 0 0 0 127 0" result="hardAlpha"/>
<feOffset dy="-12.3039"/>
<feGaussianBlur stdDeviation="4.61395"/>
<feComposite in2="hardAlpha" operator="arithmetic" k2="-1" k3="1"/>
<feColorMatrix type="matrix" values="0 0 0 0 0.533333 0 0 0 0 0.654902 0 0 0 0 0.784314 0 0 0 1 0"/>
<feBlend mode="normal" in2="shape" result="effect1_innerShadow_2519_4872"/>
<feColorMatrix in="SourceAlpha" type="matrix" values="0 0 0 0 0 0 0 0 0 0 0 0 0 0 0 0 0 0 127 0" result="hardAlpha"/>
<feOffset dx="5.12661" dy="8.20258"/>
<feGaussianBlur stdDeviation="8.71524"/>
<feComposite in2="hardAlpha" operator="arithmetic" k2="-1" k3="1"/>
<feColorMatrix type="matrix" values="0 0 0 0 0 0 0 0 0 0 0 0 0 0 0 0 0 0 0.25 0"/>
<feBlend mode="normal" in2="effect1_innerShadow_2519_4872" result="effect2_innerShadow_2519_4872"/>
</filter>
<filter id="filter7_ii_2519_4872" x="59.9986" y="0.283745" width="90.8506" height="74.3671" filterUnits="userSpaceOnUse" color-interpolation-filters="sRGB">
<feFlood flood-opacity="0" result="BackgroundImageFix"/>
<feBlend mode="normal" in="SourceGraphic" in2="BackgroundImageFix" result="shape"/>
<feColorMatrix in="SourceAlpha" type="matrix" values="0 0 0 0 0 0 0 0 0 0 0 0 0 0 0 0 0 0 127 0" result="hardAlpha"/>
<feOffset dx="28.6695" dy="12.1294"/>
<feGaussianBlur stdDeviation="11.5781"/>
<feComposite in2="hardAlpha" operator="arithmetic" k2="-1" k3="1"/>
<feColorMatrix type="matrix" values="0 0 0 0 0.533333 0 0 0 0 0.654902 0 0 0 0 0.784314 0 0 0 1 0"/>
<feBlend mode="normal" in2="shape" result="effect1_innerShadow_2519_4872"/>
<feColorMatrix in="SourceAlpha" type="matrix" values="0 0 0 0 0 0 0 0 0 0 0 0 0 0 0 0 0 0 127 0" result="hardAlpha"/>
<feOffset dx="-5.12661" dy="-8.20258"/>
<feGaussianBlur stdDeviation="8.71524"/>
<feComposite in2="hardAlpha" operator="arithmetic" k2="-1" k3="1"/>
<feColorMatrix type="matrix" values="0 0 0 0 0.0416146 0 0 0 0 0.0570362 0 0 0 0 0.195833 0 0 0 0.25 0"/>
<feBlend mode="normal" in2="effect1_innerShadow_2519_4872" result="effect2_innerShadow_2519_4872"/>
</filter>
<filter id="filter8_ii_2519_4872" x="85.2919" y="24.5078" width="22.7575" height="20.1387" filterUnits="userSpaceOnUse" color-interpolation-filters="sRGB">
<feFlood flood-opacity="0" result="BackgroundImageFix"/>
<feBlend mode="normal" in="SourceGraphic" in2="BackgroundImageFix" result="shape"/>
<feColorMatrix in="SourceAlpha" type="matrix" values="0 0 0 0 0 0 0 0 0 0 0 0 0 0 0 0 0 0 127 0" result="hardAlpha"/>
<feOffset dx="-0.551336"/>
<feGaussianBlur stdDeviation="0.275668"/>
<feComposite in2="hardAlpha" operator="arithmetic" k2="-1" k3="1"/>
<feColorMatrix type="matrix" values="0 0 0 0 0.468733 0 0 0 0 0.655116 0 0 0 0 0.845833 0 0 0 1 0"/>
<feBlend mode="normal" in2="shape" result="effect1_innerShadow_2519_4872"/>
<feColorMatrix in="SourceAlpha" type="matrix" values="0 0 0 0 0 0 0 0 0 0 0 0 0 0 0 0 0 0 127 0" result="hardAlpha"/>
<feOffset dx="0.551336"/>
<feGaussianBlur stdDeviation="0.551336"/>
<feComposite in2="hardAlpha" operator="arithmetic" k2="-1" k3="1"/>
<feColorMatrix type="matrix" values="0 0 0 0 0 0 0 0 0 0 0 0 0 0 0 0 0 0 0.25 0"/>
<feBlend mode="normal" in2="effect1_innerShadow_2519_4872" result="effect2_innerShadow_2519_4872"/>
</filter>
</defs>
</svg>
